<svg width="212.379" height="17.511" viewBox="0 0 212.379 17.511" xmlns="http://www.w3.org/2000/svg"><g id="svgGroup" stroke-linecap="round" fill-rule="nonzero" font-size="9pt" stroke="#000000" stroke-width=".4" fill="#000000" style="stroke:#000000;stroke-width:.4;fill:#000000"><path d="M 127.055 1.76 A 1.086 1.086 0 0 1 126.281 1.496 Q 126 1.232 126 0.881 A 0.819 0.819 0 0 1 126.281 0.265 A 1.086 1.086 0 0 1 127.055 0.002 L 139.324 0.002 A 1.086 1.086 0 0 1 140.098 0.265 Q 140.379 0.529 140.379 0.881 Q 140.379 1.232 140.098 1.496 A 1.086 1.086 0 0 1 139.324 1.76 L 127.055 1.76 Z M 1.055 8.51 A 1.086 1.086 0 0 1 0.281 8.246 Q 0 7.982 0 7.631 A 0.819 0.819 0 0 1 0.281 7.015 A 1.086 1.086 0 0 1 1.055 6.752 L 13.324 6.752 A 1.086 1.086 0 0 1 14.098 7.015 Q 14.379 7.279 14.379 7.631 Q 14.379 7.982 14.098 8.246 A 1.086 1.086 0 0 1 13.324 8.51 L 1.055 8.51 Z M 19.055 8.51 A 1.086 1.086 0 0 1 18.281 8.246 Q 18 7.982 18 7.631 A 0.819 0.819 0 0 1 18.281 7.015 A 1.086 1.086 0 0 1 19.055 6.752 L 31.324 6.752 A 1.086 1.086 0 0 1 32.098 7.015 Q 32.379 7.279 32.379 7.631 Q 32.379 7.982 32.098 8.246 A 1.086 1.086 0 0 1 31.324 8.51 L 19.055 8.51 Z M 91.055 8.51 A 1.086 1.086 0 0 1 90.281 8.246 Q 90 7.982 90 7.631 A 0.819 0.819 0 0 1 90.281 7.015 A 1.086 1.086 0 0 1 91.055 6.752 L 103.324 6.752 A 1.086 1.086 0 0 1 104.098 7.015 Q 104.379 7.279 104.379 7.631 Q 104.379 7.982 104.098 8.246 A 1.086 1.086 0 0 1 103.324 8.51 L 91.055 8.51 Z M 37.055 1.76 A 1.086 1.086 0 0 1 36.281 1.496 Q 36 1.232 36 0.881 A 0.819 0.819 0 0 1 36.281 0.265 A 1.086 1.086 0 0 1 37.055 0.002 L 47.074 0.002 A 1.086 1.086 0 0 1 47.848 0.265 Q 48.129 0.529 48.129 0.881 Q 48.129 1.232 47.848 1.496 A 1.086 1.086 0 0 1 47.074 1.76 L 37.055 1.76 Z M 181.055 6.26 A 1.086 1.086 0 0 1 180.281 5.996 Q 180 5.732 180 5.381 A 0.819 0.819 0 0 1 180.281 4.765 A 1.086 1.086 0 0 1 181.055 4.502 L 191.074 4.502 A 1.086 1.086 0 0 1 191.848 4.765 Q 192.129 5.029 192.129 5.381 Q 192.129 5.732 191.848 5.996 A 1.086 1.086 0 0 1 191.074 6.26 L 181.055 6.26 Z M 199.055 17.51 A 1.086 1.086 0 0 1 198.281 17.246 Q 198 16.982 198 16.631 A 0.819 0.819 0 0 1 198.281 16.015 A 1.086 1.086 0 0 1 199.055 15.752 L 209.074 15.752 A 1.086 1.086 0 0 1 209.848 16.015 Q 210.129 16.279 210.129 16.631 Q 210.129 16.982 209.848 17.246 A 1.086 1.086 0 0 1 209.074 17.51 L 199.055 17.51 Z M 201.305 13.01 A 1.086 1.086 0 0 1 200.531 12.746 Q 200.25 12.482 200.25 12.131 A 0.819 0.819 0 0 1 200.531 11.515 A 1.086 1.086 0 0 1 201.305 11.252 L 211.324 11.252 A 1.086 1.086 0 0 1 212.098 11.515 Q 212.379 11.779 212.379 12.131 Q 212.379 12.482 212.098 12.746 A 1.086 1.086 0 0 1 211.324 13.01 L 201.305 13.01 Z M 201.305 6.26 A 1.086 1.086 0 0 1 200.531 5.996 Q 200.25 5.732 200.25 5.381 A 0.819 0.819 0 0 1 200.531 4.765 A 1.086 1.086 0 0 1 201.305 4.502 L 211.324 4.502 A 1.086 1.086 0 0 1 212.098 4.765 Q 212.379 5.029 212.379 5.381 Q 212.379 5.732 212.098 5.996 A 1.086 1.086 0 0 1 211.324 6.26 L 201.305 6.26 Z M 37.055 8.51 A 1.086 1.086 0 0 1 36.281 8.246 Q 36 7.982 36 7.631 A 0.819 0.819 0 0 1 36.281 7.015 A 1.086 1.086 0 0 1 37.055 6.752 L 47.074 6.752 A 1.086 1.086 0 0 1 47.848 7.015 Q 48.129 7.279 48.129 7.631 Q 48.129 7.982 47.848 8.246 A 1.086 1.086 0 0 1 47.074 8.51 L 37.055 8.51 Z M 21.305 4.01 A 1.086 1.086 0 0 1 20.531 3.746 Q 20.25 3.482 20.25 3.131 A 0.819 0.819 0 0 1 20.531 2.515 A 1.086 1.086 0 0 1 21.305 2.252 L 29.074 2.252 A 1.086 1.086 0 0 1 29.848 2.515 Q 30.129 2.779 30.129 3.131 Q 30.129 3.482 29.848 3.746 A 1.086 1.086 0 0 1 29.074 4.01 L 21.305 4.01 Z M 37.055 10.76 A 1.086 1.086 0 0 1 36.281 10.496 Q 36 10.232 36 9.881 A 0.819 0.819 0 0 1 36.281 9.265 A 1.086 1.086 0 0 1 37.055 9.002 L 44.824 9.002 A 1.086 1.086 0 0 1 45.598 9.265 Q 45.879 9.529 45.879 9.881 Q 45.879 10.232 45.598 10.496 A 1.086 1.086 0 0 1 44.824 10.76 L 37.055 10.76 Z M 55.055 15.26 A 1.086 1.086 0 0 1 54.281 14.996 Q 54 14.732 54 14.381 A 0.819 0.819 0 0 1 54.281 13.765 A 1.086 1.086 0 0 1 55.055 13.502 L 62.824 13.502 A 1.086 1.086 0 0 1 63.598 13.765 Q 63.879 14.029 63.879 14.381 Q 63.879 14.732 63.598 14.996 A 1.086 1.086 0 0 1 62.824 15.26 L 55.055 15.26 Z M 55.055 1.76 A 1.086 1.086 0 0 1 54.281 1.496 Q 54 1.232 54 0.881 A 0.819 0.819 0 0 1 54.281 0.265 A 1.086 1.086 0 0 1 55.055 0.002 L 62.824 0.002 A 1.086 1.086 0 0 1 63.598 0.265 Q 63.879 0.529 63.879 0.881 Q 63.879 1.232 63.598 1.496 A 1.086 1.086 0 0 1 62.824 1.76 L 55.055 1.76 Z M 75.305 15.26 A 1.086 1.086 0 0 1 74.531 14.996 Q 74.25 14.732 74.25 14.381 A 0.819 0.819 0 0 1 74.531 13.765 A 1.086 1.086 0 0 1 75.305 13.502 L 83.074 13.502 A 1.086 1.086 0 0 1 83.848 13.765 Q 84.129 14.029 84.129 14.381 Q 84.129 14.732 83.848 14.996 A 1.086 1.086 0 0 1 83.074 15.26 L 75.305 15.26 Z M 75.305 1.76 A 1.086 1.086 0 0 1 74.531 1.496 Q 74.25 1.232 74.25 0.881 A 0.819 0.819 0 0 1 74.531 0.265 A 1.086 1.086 0 0 1 75.305 0.002 L 83.074 0.002 A 1.086 1.086 0 0 1 83.848 0.265 Q 84.129 0.529 84.129 0.881 Q 84.129 1.232 83.848 1.496 A 1.086 1.086 0 0 1 83.074 1.76 L 75.305 1.76 Z M 93.305 4.01 A 1.086 1.086 0 0 1 92.531 3.746 Q 92.25 3.482 92.25 3.131 A 0.819 0.819 0 0 1 92.531 2.515 A 1.086 1.086 0 0 1 93.305 2.252 L 101.074 2.252 A 1.086 1.086 0 0 1 101.848 2.515 Q 102.129 2.779 102.129 3.131 Q 102.129 3.482 101.848 3.746 A 1.086 1.086 0 0 1 101.074 4.01 L 93.305 4.01 Z M 111.305 15.26 A 1.086 1.086 0 0 1 110.531 14.996 Q 110.25 14.732 110.25 14.381 A 0.819 0.819 0 0 1 110.531 13.765 A 1.086 1.086 0 0 1 111.305 13.502 L 119.074 13.502 A 1.086 1.086 0 0 1 119.848 13.765 Q 120.129 14.029 120.129 14.381 Q 120.129 14.732 119.848 14.996 A 1.086 1.086 0 0 1 119.074 15.26 L 111.305 15.26 Z M 111.305 8.51 A 1.086 1.086 0 0 1 110.531 8.246 Q 110.25 7.982 110.25 7.631 A 0.819 0.819 0 0 1 110.531 7.015 A 1.086 1.086 0 0 1 111.305 6.752 L 119.074 6.752 A 1.086 1.086 0 0 1 119.848 7.015 Q 120.129 7.279 120.129 7.631 Q 120.129 7.982 119.848 8.246 A 1.086 1.086 0 0 1 119.074 8.51 L 111.305 8.51 Z M 111.305 1.76 A 1.086 1.086 0 0 1 110.531 1.496 Q 110.25 1.232 110.25 0.881 A 0.819 0.819 0 0 1 110.531 0.265 A 1.086 1.086 0 0 1 111.305 0.002 L 119.074 0.002 A 1.086 1.086 0 0 1 119.848 0.265 Q 120.129 0.529 120.129 0.881 Q 120.129 1.232 119.848 1.496 A 1.086 1.086 0 0 1 119.074 1.76 L 111.305 1.76 Z M 165.305 15.26 A 1.086 1.086 0 0 1 164.531 14.996 Q 164.25 14.732 164.25 14.381 A 0.819 0.819 0 0 1 164.531 13.765 A 1.086 1.086 0 0 1 165.305 13.502 L 173.074 13.502 A 1.086 1.086 0 0 1 173.848 13.765 Q 174.129 14.029 174.129 14.381 Q 174.129 14.732 173.848 14.996 A 1.086 1.086 0 0 1 173.074 15.26 L 165.305 15.26 Z M 165.305 8.51 A 1.086 1.086 0 0 1 164.531 8.246 Q 164.25 7.982 164.25 7.631 A 0.819 0.819 0 0 1 164.531 7.015 A 1.086 1.086 0 0 1 165.305 6.752 L 170.824 6.752 A 1.086 1.086 0 0 1 171.598 7.015 Q 171.879 7.279 171.879 7.631 Q 171.879 7.982 171.598 8.246 A 1.086 1.086 0 0 1 170.824 8.51 L 165.305 8.51 Z M 131.555 13.01 A 1.086 1.086 0 0 1 130.781 12.746 Q 130.5 12.482 130.5 12.131 A 0.819 0.819 0 0 1 130.781 11.515 A 1.086 1.086 0 0 1 131.555 11.252 L 134.824 11.252 A 1.086 1.086 0 0 1 135.598 11.515 Q 135.879 11.779 135.879 12.131 Q 135.879 12.482 135.598 12.746 A 1.086 1.086 0 0 1 134.824 13.01 L 131.555 13.01 Z M 131.555 10.76 A 1.086 1.086 0 0 1 130.781 10.496 Q 130.5 10.232 130.5 9.881 A 0.819 0.819 0 0 1 130.781 9.265 A 1.086 1.086 0 0 1 131.555 9.002 L 134.824 9.002 A 1.086 1.086 0 0 1 135.598 9.265 Q 135.879 9.529 135.879 9.881 Q 135.879 10.232 135.598 10.496 A 1.086 1.086 0 0 1 134.824 10.76 L 131.555 10.76 Z M 131.555 8.51 A 1.086 1.086 0 0 1 130.781 8.246 Q 130.5 7.982 130.5 7.631 A 0.819 0.819 0 0 1 130.781 7.015 A 1.086 1.086 0 0 1 131.555 6.752 L 134.824 6.752 A 1.086 1.086 0 0 1 135.598 7.015 Q 135.879 7.279 135.879 7.631 Q 135.879 7.982 135.598 8.246 A 1.086 1.086 0 0 1 134.824 8.51 L 131.555 8.51 Z M 149.555 13.01 A 1.086 1.086 0 0 1 148.781 12.746 Q 148.5 12.482 148.5 12.131 A 0.819 0.819 0 0 1 148.781 11.515 A 1.086 1.086 0 0 1 149.555 11.252 L 152.824 11.252 A 1.086 1.086 0 0 1 153.598 11.515 Q 153.879 11.779 153.879 12.131 Q 153.879 12.482 153.598 12.746 A 1.086 1.086 0 0 1 152.824 13.01 L 149.555 13.01 Z M 167.555 13.01 A 1.086 1.086 0 0 1 166.781 12.746 Q 166.5 12.482 166.5 12.131 A 0.819 0.819 0 0 1 166.781 11.515 A 1.086 1.086 0 0 1 167.555 11.252 L 170.824 11.252 A 1.086 1.086 0 0 1 171.598 11.515 Q 171.879 11.779 171.879 12.131 Q 171.879 12.482 171.598 12.746 A 1.086 1.086 0 0 1 170.824 13.01 L 167.555 13.01 Z M 167.555 10.76 A 1.086 1.086 0 0 1 166.781 10.496 Q 166.5 10.232 166.5 9.881 A 0.819 0.819 0 0 1 166.781 9.265 A 1.086 1.086 0 0 1 167.555 9.002 L 170.824 9.002 A 1.086 1.086 0 0 1 171.598 9.265 Q 171.879 9.529 171.879 9.881 Q 171.879 10.232 171.598 10.496 A 1.086 1.086 0 0 1 170.824 10.76 L 167.555 10.76 Z M 1.055 15.26 A 1.086 1.086 0 0 1 0.281 14.996 Q 0 14.732 0 14.381 A 0.819 0.819 0 0 1 0.281 13.765 A 1.086 1.086 0 0 1 1.055 13.502 L 4.324 13.502 A 1.086 1.086 0 0 1 5.098 13.765 Q 5.379 14.029 5.379 14.381 Q 5.379 14.732 5.098 14.996 A 1.086 1.086 0 0 1 4.324 15.26 L 1.055 15.26 Z M 1.055 6.26 A 1.086 1.086 0 0 1 0.281 5.996 Q 0 5.732 0 5.381 A 0.819 0.819 0 0 1 0.281 4.765 A 1.086 1.086 0 0 1 1.055 4.502 L 4.324 4.502 A 1.086 1.086 0 0 1 5.098 4.765 Q 5.379 5.029 5.379 5.381 Q 5.379 5.732 5.098 5.996 A 1.086 1.086 0 0 1 4.324 6.26 L 1.055 6.26 Z M 1.055 4.01 A 1.086 1.086 0 0 1 0.281 3.746 Q 0 3.482 0 3.131 A 0.819 0.819 0 0 1 0.281 2.515 A 1.086 1.086 0 0 1 1.055 2.252 L 4.324 2.252 A 1.086 1.086 0 0 1 5.098 2.515 Q 5.379 2.779 5.379 3.131 Q 5.379 3.482 5.098 3.746 A 1.086 1.086 0 0 1 4.324 4.01 L 1.055 4.01 Z M 10.055 4.01 A 1.086 1.086 0 0 1 9.281 3.746 Q 9 3.482 9 3.131 A 0.819 0.819 0 0 1 9.281 2.515 A 1.086 1.086 0 0 1 10.055 2.252 L 13.324 2.252 A 1.086 1.086 0 0 1 14.098 2.515 Q 14.379 2.779 14.379 3.131 Q 14.379 3.482 14.098 3.746 A 1.086 1.086 0 0 1 13.324 4.01 L 10.055 4.01 Z M 1.055 1.76 A 1.086 1.086 0 0 1 0.281 1.496 Q 0 1.232 0 0.881 A 0.819 0.819 0 0 1 0.281 0.265 A 1.086 1.086 0 0 1 1.055 0.002 L 4.324 0.002 A 1.086 1.086 0 0 1 5.098 0.265 Q 5.379 0.529 5.379 0.881 Q 5.379 1.232 5.098 1.496 A 1.086 1.086 0 0 1 4.324 1.76 L 1.055 1.76 Z M 10.055 1.76 A 1.086 1.086 0 0 1 9.281 1.496 Q 9 1.232 9 0.881 A 0.819 0.819 0 0 1 9.281 0.265 A 1.086 1.086 0 0 1 10.055 0.002 L 13.324 0.002 A 1.086 1.086 0 0 1 14.098 0.265 Q 14.379 0.529 14.379 0.881 Q 14.379 1.232 14.098 1.496 A 1.086 1.086 0 0 1 13.324 1.76 L 10.055 1.76 Z M 19.055 15.26 A 1.086 1.086 0 0 1 18.281 14.996 Q 18 14.732 18 14.381 A 0.819 0.819 0 0 1 18.281 13.765 A 1.086 1.086 0 0 1 19.055 13.502 L 22.324 13.502 A 1.086 1.086 0 0 1 23.098 13.765 Q 23.379 14.029 23.379 14.381 Q 23.379 14.732 23.098 14.996 A 1.086 1.086 0 0 1 22.324 15.26 L 19.055 15.26 Z M 19.055 6.26 A 1.086 1.086 0 0 1 18.281 5.996 Q 18 5.732 18 5.381 A 0.819 0.819 0 0 1 18.281 4.765 A 1.086 1.086 0 0 1 19.055 4.502 L 22.324 4.502 A 1.086 1.086 0 0 1 23.098 4.765 Q 23.379 5.029 23.379 5.381 Q 23.379 5.732 23.098 5.996 A 1.086 1.086 0 0 1 22.324 6.26 L 19.055 6.26 Z M 23.555 1.76 A 1.086 1.086 0 0 1 22.781 1.496 Q 22.5 1.232 22.5 0.881 A 0.819 0.819 0 0 1 22.781 0.265 A 1.086 1.086 0 0 1 23.555 0.002 L 26.824 0.002 A 1.086 1.086 0 0 1 27.598 0.265 Q 27.879 0.529 27.879 0.881 Q 27.879 1.232 27.598 1.496 A 1.086 1.086 0 0 1 26.824 1.76 L 23.555 1.76 Z M 37.055 15.26 A 1.086 1.086 0 0 1 36.281 14.996 Q 36 14.732 36 14.381 A 0.819 0.819 0 0 1 36.281 13.765 A 1.086 1.086 0 0 1 37.055 13.502 L 40.324 13.502 A 1.086 1.086 0 0 1 41.098 13.765 Q 41.379 14.029 41.379 14.381 Q 41.379 14.732 41.098 14.996 A 1.086 1.086 0 0 1 40.324 15.26 L 37.055 15.26 Z M 37.055 6.26 A 1.086 1.086 0 0 1 36.281 5.996 Q 36 5.732 36 5.381 A 0.819 0.819 0 0 1 36.281 4.765 A 1.086 1.086 0 0 1 37.055 4.502 L 40.324 4.502 A 1.086 1.086 0 0 1 41.098 4.765 Q 41.379 5.029 41.379 5.381 Q 41.379 5.732 41.098 5.996 A 1.086 1.086 0 0 1 40.324 6.26 L 37.055 6.26 Z M 37.055 4.01 A 1.086 1.086 0 0 1 36.281 3.746 Q 36 3.482 36 3.131 A 0.819 0.819 0 0 1 36.281 2.515 A 1.086 1.086 0 0 1 37.055 2.252 L 40.324 2.252 A 1.086 1.086 0 0 1 41.098 2.515 Q 41.379 2.779 41.379 3.131 Q 41.379 3.482 41.098 3.746 A 1.086 1.086 0 0 1 40.324 4.01 L 37.055 4.01 Z M 46.055 4.01 A 1.086 1.086 0 0 1 45.281 3.746 Q 45 3.482 45 3.131 A 0.819 0.819 0 0 1 45.281 2.515 A 1.086 1.086 0 0 1 46.055 2.252 L 49.324 2.252 A 1.086 1.086 0 0 1 50.098 2.515 Q 50.379 2.779 50.379 3.131 Q 50.379 3.482 50.098 3.746 A 1.086 1.086 0 0 1 49.324 4.01 L 46.055 4.01 Z M 55.055 6.26 A 1.086 1.086 0 0 1 54.281 5.996 Q 54 5.732 54 5.381 A 0.819 0.819 0 0 1 54.281 4.765 A 1.086 1.086 0 0 1 55.055 4.502 L 58.324 4.502 A 1.086 1.086 0 0 1 59.098 4.765 Q 59.379 5.029 59.379 5.381 Q 59.379 5.732 59.098 5.996 A 1.086 1.086 0 0 1 58.324 6.26 L 55.055 6.26 Z M 55.055 4.01 A 1.086 1.086 0 0 1 54.281 3.746 Q 54 3.482 54 3.131 A 0.819 0.819 0 0 1 54.281 2.515 A 1.086 1.086 0 0 1 55.055 2.252 L 58.324 2.252 A 1.086 1.086 0 0 1 59.098 2.515 Q 59.379 2.779 59.379 3.131 Q 59.379 3.482 59.098 3.746 A 1.086 1.086 0 0 1 58.324 4.01 L 55.055 4.01 Z M 73.055 6.26 A 1.086 1.086 0 0 1 72.281 5.996 Q 72 5.732 72 5.381 A 0.819 0.819 0 0 1 72.281 4.765 A 1.086 1.086 0 0 1 73.055 4.502 L 76.324 4.502 A 1.086 1.086 0 0 1 77.098 4.765 Q 77.379 5.029 77.379 5.381 Q 77.379 5.732 77.098 5.996 A 1.086 1.086 0 0 1 76.324 6.26 L 73.055 6.26 Z M 73.055 4.01 A 1.086 1.086 0 0 1 72.281 3.746 Q 72 3.482 72 3.131 A 0.819 0.819 0 0 1 72.281 2.515 A 1.086 1.086 0 0 1 73.055 2.252 L 76.324 2.252 A 1.086 1.086 0 0 1 77.098 2.515 Q 77.379 2.779 77.379 3.131 Q 77.379 3.482 77.098 3.746 A 1.086 1.086 0 0 1 76.324 4.01 L 73.055 4.01 Z M 82.055 4.01 A 1.086 1.086 0 0 1 81.281 3.746 Q 81 3.482 81 3.131 A 0.819 0.819 0 0 1 81.281 2.515 A 1.086 1.086 0 0 1 82.055 2.252 L 85.324 2.252 A 1.086 1.086 0 0 1 86.098 2.515 Q 86.379 2.779 86.379 3.131 Q 86.379 3.482 86.098 3.746 A 1.086 1.086 0 0 1 85.324 4.01 L 82.055 4.01 Z M 91.055 15.26 A 1.086 1.086 0 0 1 90.281 14.996 Q 90 14.732 90 14.381 A 0.819 0.819 0 0 1 90.281 13.765 A 1.086 1.086 0 0 1 91.055 13.502 L 94.324 13.502 A 1.086 1.086 0 0 1 95.098 13.765 Q 95.379 14.029 95.379 14.381 Q 95.379 14.732 95.098 14.996 A 1.086 1.086 0 0 1 94.324 15.26 L 91.055 15.26 Z M 91.055 6.26 A 1.086 1.086 0 0 1 90.281 5.996 Q 90 5.732 90 5.381 A 0.819 0.819 0 0 1 90.281 4.765 A 1.086 1.086 0 0 1 91.055 4.502 L 94.324 4.502 A 1.086 1.086 0 0 1 95.098 4.765 Q 95.379 5.029 95.379 5.381 Q 95.379 5.732 95.098 5.996 A 1.086 1.086 0 0 1 94.324 6.26 L 91.055 6.26 Z M 95.555 1.76 A 1.086 1.086 0 0 1 94.781 1.496 Q 94.5 1.232 94.5 0.881 A 0.819 0.819 0 0 1 94.781 0.265 A 1.086 1.086 0 0 1 95.555 0.002 L 98.824 0.002 A 1.086 1.086 0 0 1 99.598 0.265 Q 99.879 0.529 99.879 0.881 Q 99.879 1.232 99.598 1.496 A 1.086 1.086 0 0 1 98.824 1.76 L 95.555 1.76 Z M 109.055 6.26 A 1.086 1.086 0 0 1 108.281 5.996 Q 108 5.732 108 5.381 A 0.819 0.819 0 0 1 108.281 4.765 A 1.086 1.086 0 0 1 109.055 4.502 L 112.324 4.502 A 1.086 1.086 0 0 1 113.098 4.765 Q 113.379 5.029 113.379 5.381 Q 113.379 5.732 113.098 5.996 A 1.086 1.086 0 0 1 112.324 6.26 L 109.055 6.26 Z M 109.055 4.01 A 1.086 1.086 0 0 1 108.281 3.746 Q 108 3.482 108 3.131 A 0.819 0.819 0 0 1 108.281 2.515 A 1.086 1.086 0 0 1 109.055 2.252 L 112.324 2.252 A 1.086 1.086 0 0 1 113.098 2.515 Q 113.379 2.779 113.379 3.131 Q 113.379 3.482 113.098 3.746 A 1.086 1.086 0 0 1 112.324 4.01 L 109.055 4.01 Z M 118.055 4.01 A 1.086 1.086 0 0 1 117.281 3.746 Q 117 3.482 117 3.131 A 0.819 0.819 0 0 1 117.281 2.515 A 1.086 1.086 0 0 1 118.055 2.252 L 121.324 2.252 A 1.086 1.086 0 0 1 122.098 2.515 Q 122.379 2.779 122.379 3.131 Q 122.379 3.482 122.098 3.746 A 1.086 1.086 0 0 1 121.324 4.01 L 118.055 4.01 Z M 131.555 15.26 A 1.086 1.086 0 0 1 130.781 14.996 Q 130.5 14.732 130.5 14.381 A 0.819 0.819 0 0 1 130.781 13.765 A 1.086 1.086 0 0 1 131.555 13.502 L 134.824 13.502 A 1.086 1.086 0 0 1 135.598 13.765 Q 135.879 14.029 135.879 14.381 Q 135.879 14.732 135.598 14.996 A 1.086 1.086 0 0 1 134.824 15.26 L 131.555 15.26 Z M 131.555 6.26 A 1.086 1.086 0 0 1 130.781 5.996 Q 130.5 5.732 130.5 5.381 A 0.819 0.819 0 0 1 130.781 4.765 A 1.086 1.086 0 0 1 131.555 4.502 L 134.824 4.502 A 1.086 1.086 0 0 1 135.598 4.765 Q 135.879 5.029 135.879 5.381 Q 135.879 5.732 135.598 5.996 A 1.086 1.086 0 0 1 134.824 6.26 L 131.555 6.26 Z M 131.555 4.01 A 1.086 1.086 0 0 1 130.781 3.746 Q 130.5 3.482 130.5 3.131 A 0.819 0.819 0 0 1 130.781 2.515 A 1.086 1.086 0 0 1 131.555 2.252 L 134.824 2.252 A 1.086 1.086 0 0 1 135.598 2.515 Q 135.879 2.779 135.879 3.131 Q 135.879 3.482 135.598 3.746 A 1.086 1.086 0 0 1 134.824 4.01 L 131.555 4.01 Z M 149.555 15.26 A 1.086 1.086 0 0 1 148.781 14.996 Q 148.5 14.732 148.5 14.381 A 0.819 0.819 0 0 1 148.781 13.765 A 1.086 1.086 0 0 1 149.555 13.502 L 152.824 13.502 A 1.086 1.086 0 0 1 153.598 13.765 Q 153.879 14.029 153.879 14.381 Q 153.879 14.732 153.598 14.996 A 1.086 1.086 0 0 1 152.824 15.26 L 149.555 15.26 Z M 167.555 4.01 A 1.086 1.086 0 0 1 166.781 3.746 Q 166.5 3.482 166.5 3.131 A 0.819 0.819 0 0 1 166.781 2.515 A 1.086 1.086 0 0 1 167.555 2.252 L 170.824 2.252 A 1.086 1.086 0 0 1 171.598 2.515 Q 171.879 2.779 171.879 3.131 Q 171.879 3.482 171.598 3.746 A 1.086 1.086 0 0 1 170.824 4.01 L 167.555 4.01 Z M 181.055 15.26 A 1.086 1.086 0 0 1 180.281 14.996 Q 180 14.732 180 14.381 A 0.819 0.819 0 0 1 180.281 13.765 A 1.086 1.086 0 0 1 181.055 13.502 L 184.324 13.502 A 1.086 1.086 0 0 1 185.098 13.765 Q 185.379 14.029 185.379 14.381 Q 185.379 14.732 185.098 14.996 A 1.086 1.086 0 0 1 184.324 15.26 L 181.055 15.26 Z M 1.055 13.01 A 1.086 1.086 0 0 1 0.281 12.746 Q 0 12.482 0 12.131 A 0.819 0.819 0 0 1 0.281 11.515 A 1.086 1.086 0 0 1 1.055 11.252 L 4.324 11.252 A 1.086 1.086 0 0 1 5.098 11.515 Q 5.379 11.779 5.379 12.131 Q 5.379 12.482 5.098 12.746 A 1.086 1.086 0 0 1 4.324 13.01 L 1.055 13.01 Z M 10.055 13.01 A 1.086 1.086 0 0 1 9.281 12.746 Q 9 12.482 9 12.131 A 0.819 0.819 0 0 1 9.281 11.515 A 1.086 1.086 0 0 1 10.055 11.252 L 13.324 11.252 A 1.086 1.086 0 0 1 14.098 11.515 Q 14.379 11.779 14.379 12.131 Q 14.379 12.482 14.098 12.746 A 1.086 1.086 0 0 1 13.324 13.01 L 10.055 13.01 Z M 10.055 10.76 A 1.086 1.086 0 0 1 9.281 10.496 Q 9 10.232 9 9.881 A 0.819 0.819 0 0 1 9.281 9.265 A 1.086 1.086 0 0 1 10.055 9.002 L 13.324 9.002 A 1.086 1.086 0 0 1 14.098 9.265 Q 14.379 9.529 14.379 9.881 Q 14.379 10.232 14.098 10.496 A 1.086 1.086 0 0 1 13.324 10.76 L 10.055 10.76 Z M 10.055 6.26 A 1.086 1.086 0 0 1 9.281 5.996 Q 9 5.732 9 5.381 A 0.819 0.819 0 0 1 9.281 4.765 A 1.086 1.086 0 0 1 10.055 4.502 L 13.324 4.502 A 1.086 1.086 0 0 1 14.098 4.765 Q 14.379 5.029 14.379 5.381 Q 14.379 5.732 14.098 5.996 A 1.086 1.086 0 0 1 13.324 6.26 L 10.055 6.26 Z M 19.055 13.01 A 1.086 1.086 0 0 1 18.281 12.746 Q 18 12.482 18 12.131 A 0.819 0.819 0 0 1 18.281 11.515 A 1.086 1.086 0 0 1 19.055 11.252 L 22.324 11.252 A 1.086 1.086 0 0 1 23.098 11.515 Q 23.379 11.779 23.379 12.131 Q 23.379 12.482 23.098 12.746 A 1.086 1.086 0 0 1 22.324 13.01 L 19.055 13.01 Z M 28.055 13.01 A 1.086 1.086 0 0 1 27.281 12.746 Q 27 12.482 27 12.131 A 0.819 0.819 0 0 1 27.281 11.515 A 1.086 1.086 0 0 1 28.055 11.252 L 31.324 11.252 A 1.086 1.086 0 0 1 32.098 11.515 Q 32.379 11.779 32.379 12.131 Q 32.379 12.482 32.098 12.746 A 1.086 1.086 0 0 1 31.324 13.01 L 28.055 13.01 Z M 28.055 10.76 A 1.086 1.086 0 0 1 27.281 10.496 Q 27 10.232 27 9.881 A 0.819 0.819 0 0 1 27.281 9.265 A 1.086 1.086 0 0 1 28.055 9.002 L 31.324 9.002 A 1.086 1.086 0 0 1 32.098 9.265 Q 32.379 9.529 32.379 9.881 Q 32.379 10.232 32.098 10.496 A 1.086 1.086 0 0 1 31.324 10.76 L 28.055 10.76 Z M 28.055 6.26 A 1.086 1.086 0 0 1 27.281 5.996 Q 27 5.732 27 5.381 A 0.819 0.819 0 0 1 27.281 4.765 A 1.086 1.086 0 0 1 28.055 4.502 L 31.324 4.502 A 1.086 1.086 0 0 1 32.098 4.765 Q 32.379 5.029 32.379 5.381 Q 32.379 5.732 32.098 5.996 A 1.086 1.086 0 0 1 31.324 6.26 L 28.055 6.26 Z M 37.055 13.01 A 1.086 1.086 0 0 1 36.281 12.746 Q 36 12.482 36 12.131 A 0.819 0.819 0 0 1 36.281 11.515 A 1.086 1.086 0 0 1 37.055 11.252 L 40.324 11.252 A 1.086 1.086 0 0 1 41.098 11.515 Q 41.379 11.779 41.379 12.131 Q 41.379 12.482 41.098 12.746 A 1.086 1.086 0 0 1 40.324 13.01 L 37.055 13.01 Z M 46.055 6.26 A 1.086 1.086 0 0 1 45.281 5.996 Q 45 5.732 45 5.381 A 0.819 0.819 0 0 1 45.281 4.765 A 1.086 1.086 0 0 1 46.055 4.502 L 49.324 4.502 A 1.086 1.086 0 0 1 50.098 4.765 Q 50.379 5.029 50.379 5.381 Q 50.379 5.732 50.098 5.996 A 1.086 1.086 0 0 1 49.324 6.26 L 46.055 6.26 Z M 55.055 13.01 A 1.086 1.086 0 0 1 54.281 12.746 Q 54 12.482 54 12.131 A 0.819 0.819 0 0 1 54.281 11.515 A 1.086 1.086 0 0 1 55.055 11.252 L 58.324 11.252 A 1.086 1.086 0 0 1 59.098 11.515 Q 59.379 11.779 59.379 12.131 Q 59.379 12.482 59.098 12.746 A 1.086 1.086 0 0 1 58.324 13.01 L 55.055 13.01 Z M 64.055 10.76 A 1.086 1.086 0 0 1 63.281 10.496 Q 63 10.232 63 9.881 A 0.819 0.819 0 0 1 63.281 9.265 A 1.086 1.086 0 0 1 64.055 9.002 L 67.324 9.002 A 1.086 1.086 0 0 1 68.098 9.265 Q 68.379 9.529 68.379 9.881 Q 68.379 10.232 68.098 10.496 A 1.086 1.086 0 0 1 67.324 10.76 L 64.055 10.76 Z M 64.055 6.26 A 1.086 1.086 0 0 1 63.281 5.996 Q 63 5.732 63 5.381 A 0.819 0.819 0 0 1 63.281 4.765 A 1.086 1.086 0 0 1 64.055 4.502 L 67.324 4.502 A 1.086 1.086 0 0 1 68.098 4.765 Q 68.379 5.029 68.379 5.381 Q 68.379 5.732 68.098 5.996 A 1.086 1.086 0 0 1 67.324 6.26 L 64.055 6.26 Z M 61.805 4.01 A 1.086 1.086 0 0 1 61.031 3.746 Q 60.75 3.482 60.75 3.131 A 0.819 0.819 0 0 1 61.031 2.515 A 1.086 1.086 0 0 1 61.805 2.252 L 65.074 2.252 A 1.086 1.086 0 0 1 65.848 2.515 Q 66.129 2.779 66.129 3.131 Q 66.129 3.482 65.848 3.746 A 1.086 1.086 0 0 1 65.074 4.01 L 61.805 4.01 Z M 73.055 13.01 A 1.086 1.086 0 0 1 72.281 12.746 Q 72 12.482 72 12.131 A 0.819 0.819 0 0 1 72.281 11.515 A 1.086 1.086 0 0 1 73.055 11.252 L 76.324 11.252 A 1.086 1.086 0 0 1 77.098 11.515 Q 77.379 11.779 77.379 12.131 Q 77.379 12.482 77.098 12.746 A 1.086 1.086 0 0 1 76.324 13.01 L 73.055 13.01 Z M 82.055 13.01 A 1.086 1.086 0 0 1 81.281 12.746 Q 81 12.482 81 12.131 A 0.819 0.819 0 0 1 81.281 11.515 A 1.086 1.086 0 0 1 82.055 11.252 L 85.324 11.252 A 1.086 1.086 0 0 1 86.098 11.515 Q 86.379 11.779 86.379 12.131 Q 86.379 12.482 86.098 12.746 A 1.086 1.086 0 0 1 85.324 13.01 L 82.055 13.01 Z M 91.055 13.01 A 1.086 1.086 0 0 1 90.281 12.746 Q 90 12.482 90 12.131 A 0.819 0.819 0 0 1 90.281 11.515 A 1.086 1.086 0 0 1 91.055 11.252 L 94.324 11.252 A 1.086 1.086 0 0 1 95.098 11.515 Q 95.379 11.779 95.379 12.131 Q 95.379 12.482 95.098 12.746 A 1.086 1.086 0 0 1 94.324 13.01 L 91.055 13.01 Z M 100.055 13.01 A 1.086 1.086 0 0 1 99.281 12.746 Q 99 12.482 99 12.131 A 0.819 0.819 0 0 1 99.281 11.515 A 1.086 1.086 0 0 1 100.055 11.252 L 103.324 11.252 A 1.086 1.086 0 0 1 104.098 11.515 Q 104.379 11.779 104.379 12.131 Q 104.379 12.482 104.098 12.746 A 1.086 1.086 0 0 1 103.324 13.01 L 100.055 13.01 Z M 100.055 10.76 A 1.086 1.086 0 0 1 99.281 10.496 Q 99 10.232 99 9.881 A 0.819 0.819 0 0 1 99.281 9.265 A 1.086 1.086 0 0 1 100.055 9.002 L 103.324 9.002 A 1.086 1.086 0 0 1 104.098 9.265 Q 104.379 9.529 104.379 9.881 Q 104.379 10.232 104.098 10.496 A 1.086 1.086 0 0 1 103.324 10.76 L 100.055 10.76 Z M 100.055 6.26 A 1.086 1.086 0 0 1 99.281 5.996 Q 99 5.732 99 5.381 A 0.819 0.819 0 0 1 99.281 4.765 A 1.086 1.086 0 0 1 100.055 4.502 L 103.324 4.502 A 1.086 1.086 0 0 1 104.098 4.765 Q 104.379 5.029 104.379 5.381 Q 104.379 5.732 104.098 5.996 A 1.086 1.086 0 0 1 103.324 6.26 L 100.055 6.26 Z M 109.055 13.01 A 1.086 1.086 0 0 1 108.281 12.746 Q 108 12.482 108 12.131 A 0.819 0.819 0 0 1 108.281 11.515 A 1.086 1.086 0 0 1 109.055 11.252 L 112.324 11.252 A 1.086 1.086 0 0 1 113.098 11.515 Q 113.379 11.779 113.379 12.131 Q 113.379 12.482 113.098 12.746 A 1.086 1.086 0 0 1 112.324 13.01 L 109.055 13.01 Z M 118.055 13.01 A 1.086 1.086 0 0 1 117.281 12.746 Q 117 12.482 117 12.131 A 0.819 0.819 0 0 1 117.281 11.515 A 1.086 1.086 0 0 1 118.055 11.252 L 121.324 11.252 A 1.086 1.086 0 0 1 122.098 11.515 Q 122.379 11.779 122.379 12.131 Q 122.379 12.482 122.098 12.746 A 1.086 1.086 0 0 1 121.324 13.01 L 118.055 13.01 Z M 118.055 10.76 A 1.086 1.086 0 0 1 117.281 10.496 Q 117 10.232 117 9.881 A 0.819 0.819 0 0 1 117.281 9.265 A 1.086 1.086 0 0 1 118.055 9.002 L 121.324 9.002 A 1.086 1.086 0 0 1 122.098 9.265 Q 122.379 9.529 122.379 9.881 Q 122.379 10.232 122.098 10.496 A 1.086 1.086 0 0 1 121.324 10.76 L 118.055 10.76 Z M 181.055 13.01 A 1.086 1.086 0 0 1 180.281 12.746 Q 180 12.482 180 12.131 A 0.819 0.819 0 0 1 180.281 11.515 A 1.086 1.086 0 0 1 181.055 11.252 L 184.324 11.252 A 1.086 1.086 0 0 1 185.098 11.515 Q 185.379 11.779 185.379 12.131 Q 185.379 12.482 185.098 12.746 A 1.086 1.086 0 0 1 184.324 13.01 L 181.055 13.01 Z M 190.055 13.01 A 1.086 1.086 0 0 1 189.281 12.746 Q 189 12.482 189 12.131 A 0.819 0.819 0 0 1 189.281 11.515 A 1.086 1.086 0 0 1 190.055 11.252 L 193.324 11.252 A 1.086 1.086 0 0 1 194.098 11.515 Q 194.379 11.779 194.379 12.131 Q 194.379 12.482 194.098 12.746 A 1.086 1.086 0 0 1 193.324 13.01 L 190.055 13.01 Z M 190.055 10.76 A 1.086 1.086 0 0 1 189.281 10.496 Q 189 10.232 189 9.881 A 0.819 0.819 0 0 1 189.281 9.265 A 1.086 1.086 0 0 1 190.055 9.002 L 193.324 9.002 A 1.086 1.086 0 0 1 194.098 9.265 Q 194.379 9.529 194.379 9.881 Q 194.379 10.232 194.098 10.496 A 1.086 1.086 0 0 1 193.324 10.76 L 190.055 10.76 Z M 208.055 10.76 A 1.086 1.086 0 0 1 207.281 10.496 Q 207 10.232 207 9.881 A 0.819 0.819 0 0 1 207.281 9.265 A 1.086 1.086 0 0 1 208.055 9.002 L 211.324 9.002 A 1.086 1.086 0 0 1 212.098 9.265 Q 212.379 9.529 212.379 9.881 Q 212.379 10.232 212.098 10.496 A 1.086 1.086 0 0 1 211.324 10.76 L 208.055 10.76 Z M 10.055 15.26 A 1.086 1.086 0 0 1 9.281 14.996 Q 9 14.732 9 14.381 A 0.819 0.819 0 0 1 9.281 13.765 A 1.086 1.086 0 0 1 10.055 13.502 L 13.324 13.502 A 1.086 1.086 0 0 1 14.098 13.765 Q 14.379 14.029 14.379 14.381 Q 14.379 14.732 14.098 14.996 A 1.086 1.086 0 0 1 13.324 15.26 L 10.055 15.26 Z M 1.055 10.76 A 1.086 1.086 0 0 1 0.281 10.496 Q 0 10.232 0 9.881 A 0.819 0.819 0 0 1 0.281 9.265 A 1.086 1.086 0 0 1 1.055 9.002 L 4.324 9.002 A 1.086 1.086 0 0 1 5.098 9.265 Q 5.379 9.529 5.379 9.881 Q 5.379 10.232 5.098 10.496 A 1.086 1.086 0 0 1 4.324 10.76 L 1.055 10.76 Z M 28.055 15.26 A 1.086 1.086 0 0 1 27.281 14.996 Q 27 14.732 27 14.381 A 0.819 0.819 0 0 1 27.281 13.765 A 1.086 1.086 0 0 1 28.055 13.502 L 31.324 13.502 A 1.086 1.086 0 0 1 32.098 13.765 Q 32.379 14.029 32.379 14.381 Q 32.379 14.732 32.098 14.996 A 1.086 1.086 0 0 1 31.324 15.26 L 28.055 15.26 Z M 19.055 10.76 A 1.086 1.086 0 0 1 18.281 10.496 Q 18 10.232 18 9.881 A 0.819 0.819 0 0 1 18.281 9.265 A 1.086 1.086 0 0 1 19.055 9.002 L 22.324 9.002 A 1.086 1.086 0 0 1 23.098 9.265 Q 23.379 9.529 23.379 9.881 Q 23.379 10.232 23.098 10.496 A 1.086 1.086 0 0 1 22.324 10.76 L 19.055 10.76 Z M 46.055 15.26 A 1.086 1.086 0 0 1 45.281 14.996 Q 45 14.732 45 14.381 A 0.819 0.819 0 0 1 45.281 13.765 A 1.086 1.086 0 0 1 46.055 13.502 L 49.324 13.502 A 1.086 1.086 0 0 1 50.098 13.765 Q 50.379 14.029 50.379 14.381 Q 50.379 14.732 50.098 14.996 A 1.086 1.086 0 0 1 49.324 15.26 L 46.055 15.26 Z M 55.055 10.76 A 1.086 1.086 0 0 1 54.281 10.496 Q 54 10.232 54 9.881 A 0.819 0.819 0 0 1 54.281 9.265 A 1.086 1.086 0 0 1 55.055 9.002 L 58.324 9.002 A 1.086 1.086 0 0 1 59.098 9.265 Q 59.379 9.529 59.379 9.881 Q 59.379 10.232 59.098 10.496 A 1.086 1.086 0 0 1 58.324 10.76 L 55.055 10.76 Z M 55.055 8.51 A 1.086 1.086 0 0 1 54.281 8.246 Q 54 7.982 54 7.631 A 0.819 0.819 0 0 1 54.281 7.015 A 1.086 1.086 0 0 1 55.055 6.752 L 58.324 6.752 A 1.086 1.086 0 0 1 59.098 7.015 Q 59.379 7.279 59.379 7.631 Q 59.379 7.982 59.098 8.246 A 1.086 1.086 0 0 1 58.324 8.51 L 55.055 8.51 Z M 64.055 8.51 A 1.086 1.086 0 0 1 63.281 8.246 Q 63 7.982 63 7.631 A 0.819 0.819 0 0 1 63.281 7.015 A 1.086 1.086 0 0 1 64.055 6.752 L 67.324 6.752 A 1.086 1.086 0 0 1 68.098 7.015 Q 68.379 7.279 68.379 7.631 Q 68.379 7.982 68.098 8.246 A 1.086 1.086 0 0 1 67.324 8.51 L 64.055 8.51 Z M 73.055 10.76 A 1.086 1.086 0 0 1 72.281 10.496 Q 72 10.232 72 9.881 A 0.819 0.819 0 0 1 72.281 9.265 A 1.086 1.086 0 0 1 73.055 9.002 L 76.324 9.002 A 1.086 1.086 0 0 1 77.098 9.265 Q 77.379 9.529 77.379 9.881 Q 77.379 10.232 77.098 10.496 A 1.086 1.086 0 0 1 76.324 10.76 L 73.055 10.76 Z M 73.055 8.51 A 1.086 1.086 0 0 1 72.281 8.246 Q 72 7.982 72 7.631 A 0.819 0.819 0 0 1 72.281 7.015 A 1.086 1.086 0 0 1 73.055 6.752 L 76.324 6.752 A 1.086 1.086 0 0 1 77.098 7.015 Q 77.379 7.279 77.379 7.631 Q 77.379 7.982 77.098 8.246 A 1.086 1.086 0 0 1 76.324 8.51 L 73.055 8.51 Z M 100.055 15.26 A 1.086 1.086 0 0 1 99.281 14.996 Q 99 14.732 99 14.381 A 0.819 0.819 0 0 1 99.281 13.765 A 1.086 1.086 0 0 1 100.055 13.502 L 103.324 13.502 A 1.086 1.086 0 0 1 104.098 13.765 Q 104.379 14.029 104.379 14.381 Q 104.379 14.732 104.098 14.996 A 1.086 1.086 0 0 1 103.324 15.26 L 100.055 15.26 Z M 91.055 10.76 A 1.086 1.086 0 0 1 90.281 10.496 Q 90 10.232 90 9.881 A 0.819 0.819 0 0 1 90.281 9.265 A 1.086 1.086 0 0 1 91.055 9.002 L 94.324 9.002 A 1.086 1.086 0 0 1 95.098 9.265 Q 95.379 9.529 95.379 9.881 Q 95.379 10.232 95.098 10.496 A 1.086 1.086 0 0 1 94.324 10.76 L 91.055 10.76 Z M 190.055 15.26 A 1.086 1.086 0 0 1 189.281 14.996 Q 189 14.732 189 14.381 A 0.819 0.819 0 0 1 189.281 13.765 A 1.086 1.086 0 0 1 190.055 13.502 L 193.324 13.502 A 1.086 1.086 0 0 1 194.098 13.765 Q 194.379 14.029 194.379 14.381 Q 194.379 14.732 194.098 14.996 A 1.086 1.086 0 0 1 193.324 15.26 L 190.055 15.26 Z M 181.055 10.76 A 1.086 1.086 0 0 1 180.281 10.496 Q 180 10.232 180 9.881 A 0.819 0.819 0 0 1 180.281 9.265 A 1.086 1.086 0 0 1 181.055 9.002 L 184.324 9.002 A 1.086 1.086 0 0 1 185.098 9.265 Q 185.379 9.529 185.379 9.881 Q 185.379 10.232 185.098 10.496 A 1.086 1.086 0 0 1 184.324 10.76 L 181.055 10.76 Z M 181.055 8.51 A 1.086 1.086 0 0 1 180.281 8.246 Q 180 7.982 180 7.631 A 0.819 0.819 0 0 1 180.281 7.015 A 1.086 1.086 0 0 1 181.055 6.752 L 184.324 6.752 A 1.086 1.086 0 0 1 185.098 7.015 Q 185.379 7.279 185.379 7.631 Q 185.379 7.982 185.098 8.246 A 1.086 1.086 0 0 1 184.324 8.51 L 181.055 8.51 Z M 190.055 8.51 A 1.086 1.086 0 0 1 189.281 8.246 Q 189 7.982 189 7.631 A 0.819 0.819 0 0 1 189.281 7.015 A 1.086 1.086 0 0 1 190.055 6.752 L 193.324 6.752 A 1.086 1.086 0 0 1 194.098 7.015 Q 194.379 7.279 194.379 7.631 Q 194.379 7.982 194.098 8.246 A 1.086 1.086 0 0 1 193.324 8.51 L 190.055 8.51 Z M 208.055 15.26 A 1.086 1.086 0 0 1 207.281 14.996 Q 207 14.732 207 14.381 A 0.819 0.819 0 0 1 207.281 13.765 A 1.086 1.086 0 0 1 208.055 13.502 L 211.324 13.502 A 1.086 1.086 0 0 1 212.098 13.765 Q 212.379 14.029 212.379 14.381 Q 212.379 14.732 212.098 14.996 A 1.086 1.086 0 0 1 211.324 15.26 L 208.055 15.26 Z M 199.055 10.76 A 1.086 1.086 0 0 1 198.281 10.496 Q 198 10.232 198 9.881 A 0.819 0.819 0 0 1 198.281 9.265 A 1.086 1.086 0 0 1 199.055 9.002 L 202.324 9.002 A 1.086 1.086 0 0 1 203.098 9.265 Q 203.379 9.529 203.379 9.881 Q 203.379 10.232 203.098 10.496 A 1.086 1.086 0 0 1 202.324 10.76 L 199.055 10.76 Z M 199.055 8.51 A 1.086 1.086 0 0 1 198.281 8.246 Q 198 7.982 198 7.631 A 0.819 0.819 0 0 1 198.281 7.015 A 1.086 1.086 0 0 1 199.055 6.752 L 202.324 6.752 A 1.086 1.086 0 0 1 203.098 7.015 Q 203.379 7.279 203.379 7.631 Q 203.379 7.982 203.098 8.246 A 1.086 1.086 0 0 1 202.324 8.51 L 199.055 8.51 Z M 208.055 8.51 A 1.086 1.086 0 0 1 207.281 8.246 Q 207 7.982 207 7.631 A 0.819 0.819 0 0 1 207.281 7.015 A 1.086 1.086 0 0 1 208.055 6.752 L 211.324 6.752 A 1.086 1.086 0 0 1 212.098 7.015 Q 212.379 7.279 212.379 7.631 Q 212.379 7.982 212.098 8.246 A 1.086 1.086 0 0 1 211.324 8.51 L 208.055 8.51 Z M 43.805 13.01 A 1.086 1.086 0 0 1 43.031 12.746 Q 42.75 12.482 42.75 12.131 A 0.819 0.819 0 0 1 43.031 11.515 A 1.086 1.086 0 0 1 43.805 11.252 L 47.074 11.252 A 1.086 1.086 0 0 1 47.848 11.515 Q 48.129 11.779 48.129 12.131 Q 48.129 12.482 47.848 12.746 A 1.086 1.086 0 0 1 47.074 13.01 L 43.805 13.01 Z M 61.805 13.01 A 1.086 1.086 0 0 1 61.031 12.746 Q 60.75 12.482 60.75 12.131 A 0.819 0.819 0 0 1 61.031 11.515 A 1.086 1.086 0 0 1 61.805 11.252 L 65.074 11.252 A 1.086 1.086 0 0 1 65.848 11.515 Q 66.129 11.779 66.129 12.131 Q 66.129 12.482 65.848 12.746 A 1.086 1.086 0 0 1 65.074 13.01 L 61.805 13.01 Z"/></g></svg>