<svg width="424.758" height="35.023" viewBox="0 0 424.758 35.023" xmlns="http://www.w3.org/2000/svg"><g id="svgGroup" stroke-linecap="round" fill-rule="nonzero" font-size="9pt" stroke="#ffffff" stroke-width=".4" fill="#ffffff" style="stroke:#ffffff;stroke-width:.4;fill:#ffffff"><path d="M 254.109 3.519 A 2.172 2.172 0 0 1 252.563 2.992 Q 252 2.464 252 1.761 A 1.637 1.637 0 0 1 252.563 0.531 Q 253.125 0.004 254.109 0.004 L 278.648 0.004 A 2.172 2.172 0 0 1 280.195 0.531 Q 280.758 1.058 280.758 1.761 A 1.637 1.637 0 0 1 280.195 2.992 Q 279.633 3.519 278.648 3.519 L 254.109 3.519 Z M 2.109 17.019 A 2.172 2.172 0 0 1 0.563 16.492 Q 0 15.964 0 15.261 A 1.637 1.637 0 0 1 0.563 14.031 Q 1.125 13.504 2.109 13.504 L 26.648 13.504 A 2.172 2.172 0 0 1 28.195 14.031 Q 28.758 14.558 28.758 15.261 A 1.637 1.637 0 0 1 28.195 16.492 Q 27.633 17.019 26.648 17.019 L 2.109 17.019 Z M 38.109 17.019 A 2.172 2.172 0 0 1 36.563 16.492 Q 36 15.964 36 15.261 A 1.637 1.637 0 0 1 36.563 14.031 Q 37.125 13.504 38.109 13.504 L 62.648 13.504 A 2.172 2.172 0 0 1 64.195 14.031 Q 64.758 14.558 64.758 15.261 A 1.637 1.637 0 0 1 64.195 16.492 Q 63.633 17.019 62.648 17.019 L 38.109 17.019 Z M 182.109 17.019 A 2.172 2.172 0 0 1 180.563 16.492 Q 180 15.964 180 15.261 A 1.637 1.637 0 0 1 180.563 14.031 Q 181.125 13.504 182.109 13.504 L 206.648 13.504 A 2.172 2.172 0 0 1 208.195 14.031 Q 208.758 14.558 208.758 15.261 A 1.637 1.637 0 0 1 208.195 16.492 Q 207.633 17.019 206.648 17.019 L 182.109 17.019 Z M 74.109 3.519 A 2.172 2.172 0 0 1 72.563 2.992 Q 72 2.464 72 1.761 A 1.637 1.637 0 0 1 72.563 0.531 Q 73.125 0.004 74.109 0.004 L 94.148 0.004 A 2.172 2.172 0 0 1 95.695 0.531 Q 96.258 1.058 96.258 1.761 A 1.637 1.637 0 0 1 95.695 2.992 Q 95.133 3.519 94.148 3.519 L 74.109 3.519 Z M 362.109 12.519 A 2.172 2.172 0 0 1 360.563 11.992 Q 360 11.464 360 10.761 A 1.637 1.637 0 0 1 360.563 9.531 Q 361.125 9.004 362.109 9.004 L 382.148 9.004 A 2.172 2.172 0 0 1 383.695 9.531 Q 384.258 10.058 384.258 10.761 A 1.637 1.637 0 0 1 383.695 11.992 Q 383.133 12.519 382.148 12.519 L 362.109 12.519 Z M 74.109 17.019 A 2.172 2.172 0 0 1 72.563 16.492 Q 72 15.964 72 15.261 A 1.637 1.637 0 0 1 72.563 14.031 Q 73.125 13.504 74.109 13.504 L 94.148 13.504 A 2.172 2.172 0 0 1 95.695 14.031 Q 96.258 14.558 96.258 15.261 A 1.637 1.637 0 0 1 95.695 16.492 Q 95.133 17.019 94.148 17.019 L 74.109 17.019 Z M 402.609 26.019 A 2.172 2.172 0 0 1 401.063 25.492 Q 400.5 24.964 400.5 24.261 A 1.637 1.637 0 0 1 401.063 23.031 Q 401.625 22.504 402.609 22.504 L 422.648 22.504 A 2.172 2.172 0 0 1 424.195 23.031 Q 424.758 23.558 424.758 24.261 A 1.637 1.637 0 0 1 424.195 25.492 Q 423.633 26.019 422.648 26.019 L 402.609 26.019 Z M 402.609 12.519 A 2.172 2.172 0 0 1 401.063 11.992 Q 400.5 11.464 400.5 10.761 A 1.637 1.637 0 0 1 401.063 9.531 Q 401.625 9.004 402.609 9.004 L 422.648 9.004 A 2.172 2.172 0 0 1 424.195 9.531 Q 424.758 10.058 424.758 10.761 A 1.637 1.637 0 0 1 424.195 11.992 Q 423.633 12.519 422.648 12.519 L 402.609 12.519 Z M 398.109 35.019 A 2.172 2.172 0 0 1 396.563 34.492 Q 396 33.964 396 33.261 A 1.637 1.637 0 0 1 396.563 32.031 Q 397.125 31.504 398.109 31.504 L 418.148 31.504 A 2.172 2.172 0 0 1 419.695 32.031 Q 420.258 32.558 420.258 33.261 A 1.637 1.637 0 0 1 419.695 34.492 Q 419.133 35.019 418.148 35.019 L 398.109 35.019 Z M 150.609 3.519 A 2.172 2.172 0 0 1 149.063 2.992 Q 148.5 2.464 148.5 1.761 A 1.637 1.637 0 0 1 149.063 0.531 Q 149.625 0.004 150.609 0.004 L 166.148 0.004 A 2.172 2.172 0 0 1 167.695 0.531 Q 168.258 1.058 168.258 1.761 A 1.637 1.637 0 0 1 167.695 2.992 Q 167.133 3.519 166.148 3.519 L 150.609 3.519 Z M 222.609 3.519 A 2.172 2.172 0 0 1 221.063 2.992 Q 220.5 2.464 220.5 1.761 A 1.637 1.637 0 0 1 221.063 0.531 Q 221.625 0.004 222.609 0.004 L 238.148 0.004 A 2.172 2.172 0 0 1 239.695 0.531 Q 240.258 1.058 240.258 1.761 A 1.637 1.637 0 0 1 239.695 2.992 Q 239.133 3.519 238.148 3.519 L 222.609 3.519 Z M 42.609 8.019 A 2.172 2.172 0 0 1 41.063 7.492 Q 40.5 6.964 40.5 6.261 A 1.637 1.637 0 0 1 41.063 5.031 Q 41.625 4.504 42.609 4.504 L 58.148 4.504 A 2.172 2.172 0 0 1 59.695 5.031 Q 60.258 5.558 60.258 6.261 A 1.637 1.637 0 0 1 59.695 7.492 Q 59.133 8.019 58.148 8.019 L 42.609 8.019 Z M 74.109 21.519 A 2.172 2.172 0 0 1 72.563 20.992 Q 72 20.464 72 19.761 A 1.637 1.637 0 0 1 72.563 18.531 Q 73.125 18.004 74.109 18.004 L 89.648 18.004 A 2.172 2.172 0 0 1 91.195 18.531 Q 91.758 19.058 91.758 19.761 A 1.637 1.637 0 0 1 91.195 20.992 Q 90.633 21.519 89.648 21.519 L 74.109 21.519 Z M 110.109 3.519 A 2.172 2.172 0 0 1 108.563 2.992 Q 108 2.464 108 1.761 A 1.637 1.637 0 0 1 108.563 0.531 Q 109.125 0.004 110.109 0.004 L 125.648 0.004 A 2.172 2.172 0 0 1 127.195 0.531 Q 127.758 1.058 127.758 1.761 A 1.637 1.637 0 0 1 127.195 2.992 Q 126.633 3.519 125.648 3.519 L 110.109 3.519 Z M 186.609 8.019 A 2.172 2.172 0 0 1 185.063 7.492 Q 184.5 6.964 184.5 6.261 A 1.637 1.637 0 0 1 185.063 5.031 Q 185.625 4.504 186.609 4.504 L 202.148 4.504 A 2.172 2.172 0 0 1 203.695 5.031 Q 204.258 5.558 204.258 6.261 A 1.637 1.637 0 0 1 203.695 7.492 Q 203.133 8.019 202.148 8.019 L 186.609 8.019 Z M 222.609 17.019 A 2.172 2.172 0 0 1 221.063 16.492 Q 220.5 15.964 220.5 15.261 A 1.637 1.637 0 0 1 221.063 14.031 Q 221.625 13.504 222.609 13.504 L 238.148 13.504 A 2.172 2.172 0 0 1 239.695 14.031 Q 240.258 14.558 240.258 15.261 A 1.637 1.637 0 0 1 239.695 16.492 Q 239.133 17.019 238.148 17.019 L 222.609 17.019 Z M 110.109 30.519 A 2.172 2.172 0 0 1 108.563 29.992 Q 108 29.464 108 28.761 A 1.637 1.637 0 0 1 108.563 27.531 Q 109.125 27.004 110.109 27.004 L 125.648 27.004 A 2.172 2.172 0 0 1 127.195 27.531 Q 127.758 28.058 127.758 28.761 A 1.637 1.637 0 0 1 127.195 29.992 Q 126.633 30.519 125.648 30.519 L 110.109 30.519 Z M 150.609 30.519 A 2.172 2.172 0 0 1 149.063 29.992 Q 148.5 29.464 148.5 28.761 A 1.637 1.637 0 0 1 149.063 27.531 Q 149.625 27.004 150.609 27.004 L 166.148 27.004 A 2.172 2.172 0 0 1 167.695 27.531 Q 168.258 28.058 168.258 28.761 A 1.637 1.637 0 0 1 167.695 29.992 Q 167.133 30.519 166.148 30.519 L 150.609 30.519 Z M 222.609 30.519 A 2.172 2.172 0 0 1 221.063 29.992 Q 220.5 29.464 220.5 28.761 A 1.637 1.637 0 0 1 221.063 27.531 Q 221.625 27.004 222.609 27.004 L 238.148 27.004 A 2.172 2.172 0 0 1 239.695 27.531 Q 240.258 28.058 240.258 28.761 A 1.637 1.637 0 0 1 239.695 29.992 Q 239.133 30.519 238.148 30.519 L 222.609 30.519 Z M 330.609 30.519 A 2.172 2.172 0 0 1 329.063 29.992 Q 328.5 29.464 328.5 28.761 A 1.637 1.637 0 0 1 329.063 27.531 Q 329.625 27.004 330.609 27.004 L 346.148 27.004 A 2.172 2.172 0 0 1 347.695 27.531 Q 348.258 28.058 348.258 28.761 A 1.637 1.637 0 0 1 347.695 29.992 Q 347.133 30.519 346.148 30.519 L 330.609 30.519 Z M 330.609 17.019 A 2.172 2.172 0 0 1 329.063 16.492 Q 328.5 15.964 328.5 15.261 A 1.637 1.637 0 0 1 329.063 14.031 Q 329.625 13.504 330.609 13.504 L 341.648 13.504 A 2.172 2.172 0 0 1 343.195 14.031 Q 343.758 14.558 343.758 15.261 A 1.637 1.637 0 0 1 343.195 16.492 Q 342.633 17.019 341.648 17.019 L 330.609 17.019 Z M 2.109 30.519 A 2.172 2.172 0 0 1 0.563 29.992 Q 0 29.464 0 28.761 A 1.637 1.637 0 0 1 0.563 27.531 Q 1.125 27.004 2.109 27.004 L 8.648 27.004 A 2.172 2.172 0 0 1 10.195 27.531 Q 10.758 28.058 10.758 28.761 A 1.637 1.637 0 0 1 10.195 29.992 Q 9.633 30.519 8.648 30.519 L 2.109 30.519 Z M 2.109 26.019 A 2.172 2.172 0 0 1 0.563 25.492 Q 0 24.964 0 24.261 A 1.637 1.637 0 0 1 0.563 23.031 Q 1.125 22.504 2.109 22.504 L 8.648 22.504 A 2.172 2.172 0 0 1 10.195 23.031 Q 10.758 23.558 10.758 24.261 A 1.637 1.637 0 0 1 10.195 25.492 Q 9.633 26.019 8.648 26.019 L 2.109 26.019 Z M 2.109 21.519 A 2.172 2.172 0 0 1 0.563 20.992 Q 0 20.464 0 19.761 A 1.637 1.637 0 0 1 0.563 18.531 Q 1.125 18.004 2.109 18.004 L 8.648 18.004 A 2.172 2.172 0 0 1 10.195 18.531 Q 10.758 19.058 10.758 19.761 A 1.637 1.637 0 0 1 10.195 20.992 Q 9.633 21.519 8.648 21.519 L 2.109 21.519 Z M 2.109 12.519 A 2.172 2.172 0 0 1 0.563 11.992 Q 0 11.464 0 10.761 A 1.637 1.637 0 0 1 0.563 9.531 Q 1.125 9.004 2.109 9.004 L 8.648 9.004 A 2.172 2.172 0 0 1 10.195 9.531 Q 10.758 10.058 10.758 10.761 A 1.637 1.637 0 0 1 10.195 11.992 Q 9.633 12.519 8.648 12.519 L 2.109 12.519 Z M 2.109 8.019 A 2.172 2.172 0 0 1 0.563 7.492 Q 0 6.964 0 6.261 A 1.637 1.637 0 0 1 0.563 5.031 Q 1.125 4.504 2.109 4.504 L 8.648 4.504 A 2.172 2.172 0 0 1 10.195 5.031 Q 10.758 5.558 10.758 6.261 A 1.637 1.637 0 0 1 10.195 7.492 Q 9.633 8.019 8.648 8.019 L 2.109 8.019 Z M 2.109 3.519 A 2.172 2.172 0 0 1 0.563 2.992 Q 0 2.464 0 1.761 A 1.637 1.637 0 0 1 0.563 0.531 Q 1.125 0.004 2.109 0.004 L 8.648 0.004 A 2.172 2.172 0 0 1 10.195 0.531 Q 10.758 1.058 10.758 1.761 A 1.637 1.637 0 0 1 10.195 2.992 Q 9.633 3.519 8.648 3.519 L 2.109 3.519 Z M 38.109 30.519 A 2.172 2.172 0 0 1 36.563 29.992 Q 36 29.464 36 28.761 A 1.637 1.637 0 0 1 36.563 27.531 Q 37.125 27.004 38.109 27.004 L 44.648 27.004 A 2.172 2.172 0 0 1 46.195 27.531 Q 46.758 28.058 46.758 28.761 A 1.637 1.637 0 0 1 46.195 29.992 Q 45.633 30.519 44.648 30.519 L 38.109 30.519 Z M 38.109 26.019 A 2.172 2.172 0 0 1 36.563 25.492 Q 36 24.964 36 24.261 A 1.637 1.637 0 0 1 36.563 23.031 Q 37.125 22.504 38.109 22.504 L 44.648 22.504 A 2.172 2.172 0 0 1 46.195 23.031 Q 46.758 23.558 46.758 24.261 A 1.637 1.637 0 0 1 46.195 25.492 Q 45.633 26.019 44.648 26.019 L 38.109 26.019 Z M 38.109 21.519 A 2.172 2.172 0 0 1 36.563 20.992 Q 36 20.464 36 19.761 A 1.637 1.637 0 0 1 36.563 18.531 Q 37.125 18.004 38.109 18.004 L 44.648 18.004 A 2.172 2.172 0 0 1 46.195 18.531 Q 46.758 19.058 46.758 19.761 A 1.637 1.637 0 0 1 46.195 20.992 Q 45.633 21.519 44.648 21.519 L 38.109 21.519 Z M 38.109 12.519 A 2.172 2.172 0 0 1 36.563 11.992 Q 36 11.464 36 10.761 A 1.637 1.637 0 0 1 36.563 9.531 Q 37.125 9.004 38.109 9.004 L 44.648 9.004 A 2.172 2.172 0 0 1 46.195 9.531 Q 46.758 10.058 46.758 10.761 A 1.637 1.637 0 0 1 46.195 11.992 Q 45.633 12.519 44.648 12.519 L 38.109 12.519 Z M 47.109 3.519 A 2.172 2.172 0 0 1 45.563 2.992 Q 45 2.464 45 1.761 A 1.637 1.637 0 0 1 45.563 0.531 Q 46.125 0.004 47.109 0.004 L 53.648 0.004 A 2.172 2.172 0 0 1 55.195 0.531 Q 55.758 1.058 55.758 1.761 A 1.637 1.637 0 0 1 55.195 2.992 Q 54.633 3.519 53.648 3.519 L 47.109 3.519 Z M 74.109 30.519 A 2.172 2.172 0 0 1 72.563 29.992 Q 72 29.464 72 28.761 A 1.637 1.637 0 0 1 72.563 27.531 Q 73.125 27.004 74.109 27.004 L 80.648 27.004 A 2.172 2.172 0 0 1 82.195 27.531 Q 82.758 28.058 82.758 28.761 A 1.637 1.637 0 0 1 82.195 29.992 Q 81.633 30.519 80.648 30.519 L 74.109 30.519 Z M 74.109 26.019 A 2.172 2.172 0 0 1 72.563 25.492 Q 72 24.964 72 24.261 A 1.637 1.637 0 0 1 72.563 23.031 Q 73.125 22.504 74.109 22.504 L 80.648 22.504 A 2.172 2.172 0 0 1 82.195 23.031 Q 82.758 23.558 82.758 24.261 A 1.637 1.637 0 0 1 82.195 25.492 Q 81.633 26.019 80.648 26.019 L 74.109 26.019 Z M 74.109 12.519 A 2.172 2.172 0 0 1 72.563 11.992 Q 72 11.464 72 10.761 A 1.637 1.637 0 0 1 72.563 9.531 Q 73.125 9.004 74.109 9.004 L 80.648 9.004 A 2.172 2.172 0 0 1 82.195 9.531 Q 82.758 10.058 82.758 10.761 A 1.637 1.637 0 0 1 82.195 11.992 Q 81.633 12.519 80.648 12.519 L 74.109 12.519 Z M 74.109 8.019 A 2.172 2.172 0 0 1 72.563 7.492 Q 72 6.964 72 6.261 A 1.637 1.637 0 0 1 72.563 5.031 Q 73.125 4.504 74.109 4.504 L 80.648 4.504 A 2.172 2.172 0 0 1 82.195 5.031 Q 82.758 5.558 82.758 6.261 A 1.637 1.637 0 0 1 82.195 7.492 Q 81.633 8.019 80.648 8.019 L 74.109 8.019 Z M 110.109 26.019 A 2.172 2.172 0 0 1 108.563 25.492 Q 108 24.964 108 24.261 A 1.637 1.637 0 0 1 108.563 23.031 Q 109.125 22.504 110.109 22.504 L 116.648 22.504 A 2.172 2.172 0 0 1 118.195 23.031 Q 118.758 23.558 118.758 24.261 A 1.637 1.637 0 0 1 118.195 25.492 Q 117.633 26.019 116.648 26.019 L 110.109 26.019 Z M 110.109 21.519 A 2.172 2.172 0 0 1 108.563 20.992 Q 108 20.464 108 19.761 A 1.637 1.637 0 0 1 108.563 18.531 Q 109.125 18.004 110.109 18.004 L 116.648 18.004 A 2.172 2.172 0 0 1 118.195 18.531 Q 118.758 19.058 118.758 19.761 A 1.637 1.637 0 0 1 118.195 20.992 Q 117.633 21.519 116.648 21.519 L 110.109 21.519 Z M 110.109 17.019 A 2.172 2.172 0 0 1 108.563 16.492 Q 108 15.964 108 15.261 A 1.637 1.637 0 0 1 108.563 14.031 Q 109.125 13.504 110.109 13.504 L 116.648 13.504 A 2.172 2.172 0 0 1 118.195 14.031 Q 118.758 14.558 118.758 15.261 A 1.637 1.637 0 0 1 118.195 16.492 Q 117.633 17.019 116.648 17.019 L 110.109 17.019 Z M 110.109 12.519 A 2.172 2.172 0 0 1 108.563 11.992 Q 108 11.464 108 10.761 A 1.637 1.637 0 0 1 108.563 9.531 Q 109.125 9.004 110.109 9.004 L 116.648 9.004 A 2.172 2.172 0 0 1 118.195 9.531 Q 118.758 10.058 118.758 10.761 A 1.637 1.637 0 0 1 118.195 11.992 Q 117.633 12.519 116.648 12.519 L 110.109 12.519 Z M 110.109 8.019 A 2.172 2.172 0 0 1 108.563 7.492 Q 108 6.964 108 6.261 A 1.637 1.637 0 0 1 108.563 5.031 Q 109.125 4.504 110.109 4.504 L 116.648 4.504 A 2.172 2.172 0 0 1 118.195 5.031 Q 118.758 5.558 118.758 6.261 A 1.637 1.637 0 0 1 118.195 7.492 Q 117.633 8.019 116.648 8.019 L 110.109 8.019 Z M 146.109 26.019 A 2.172 2.172 0 0 1 144.563 25.492 Q 144 24.964 144 24.261 A 1.637 1.637 0 0 1 144.563 23.031 Q 145.125 22.504 146.109 22.504 L 152.648 22.504 A 2.172 2.172 0 0 1 154.195 23.031 Q 154.758 23.558 154.758 24.261 A 1.637 1.637 0 0 1 154.195 25.492 Q 153.633 26.019 152.648 26.019 L 146.109 26.019 Z M 146.109 21.519 A 2.172 2.172 0 0 1 144.563 20.992 Q 144 20.464 144 19.761 A 1.637 1.637 0 0 1 144.563 18.531 Q 145.125 18.004 146.109 18.004 L 152.648 18.004 A 2.172 2.172 0 0 1 154.195 18.531 Q 154.758 19.058 154.758 19.761 A 1.637 1.637 0 0 1 154.195 20.992 Q 153.633 21.519 152.648 21.519 L 146.109 21.519 Z M 146.109 17.019 A 2.172 2.172 0 0 1 144.563 16.492 Q 144 15.964 144 15.261 A 1.637 1.637 0 0 1 144.563 14.031 Q 145.125 13.504 146.109 13.504 L 152.648 13.504 A 2.172 2.172 0 0 1 154.195 14.031 Q 154.758 14.558 154.758 15.261 A 1.637 1.637 0 0 1 154.195 16.492 Q 153.633 17.019 152.648 17.019 L 146.109 17.019 Z M 146.109 12.519 A 2.172 2.172 0 0 1 144.563 11.992 Q 144 11.464 144 10.761 A 1.637 1.637 0 0 1 144.563 9.531 Q 145.125 9.004 146.109 9.004 L 152.648 9.004 A 2.172 2.172 0 0 1 154.195 9.531 Q 154.758 10.058 154.758 10.761 A 1.637 1.637 0 0 1 154.195 11.992 Q 153.633 12.519 152.648 12.519 L 146.109 12.519 Z M 146.109 8.019 A 2.172 2.172 0 0 1 144.563 7.492 Q 144 6.964 144 6.261 A 1.637 1.637 0 0 1 144.563 5.031 Q 145.125 4.504 146.109 4.504 L 152.648 4.504 A 2.172 2.172 0 0 1 154.195 5.031 Q 154.758 5.558 154.758 6.261 A 1.637 1.637 0 0 1 154.195 7.492 Q 153.633 8.019 152.648 8.019 L 146.109 8.019 Z M 182.109 30.519 A 2.172 2.172 0 0 1 180.563 29.992 Q 180 29.464 180 28.761 A 1.637 1.637 0 0 1 180.563 27.531 Q 181.125 27.004 182.109 27.004 L 188.648 27.004 A 2.172 2.172 0 0 1 190.195 27.531 Q 190.758 28.058 190.758 28.761 A 1.637 1.637 0 0 1 190.195 29.992 Q 189.633 30.519 188.648 30.519 L 182.109 30.519 Z M 182.109 26.019 A 2.172 2.172 0 0 1 180.563 25.492 Q 180 24.964 180 24.261 A 1.637 1.637 0 0 1 180.563 23.031 Q 181.125 22.504 182.109 22.504 L 188.648 22.504 A 2.172 2.172 0 0 1 190.195 23.031 Q 190.758 23.558 190.758 24.261 A 1.637 1.637 0 0 1 190.195 25.492 Q 189.633 26.019 188.648 26.019 L 182.109 26.019 Z M 182.109 21.519 A 2.172 2.172 0 0 1 180.563 20.992 Q 180 20.464 180 19.761 A 1.637 1.637 0 0 1 180.563 18.531 Q 181.125 18.004 182.109 18.004 L 188.648 18.004 A 2.172 2.172 0 0 1 190.195 18.531 Q 190.758 19.058 190.758 19.761 A 1.637 1.637 0 0 1 190.195 20.992 Q 189.633 21.519 188.648 21.519 L 182.109 21.519 Z M 182.109 12.519 A 2.172 2.172 0 0 1 180.563 11.992 Q 180 11.464 180 10.761 A 1.637 1.637 0 0 1 180.563 9.531 Q 181.125 9.004 182.109 9.004 L 188.648 9.004 A 2.172 2.172 0 0 1 190.195 9.531 Q 190.758 10.058 190.758 10.761 A 1.637 1.637 0 0 1 190.195 11.992 Q 189.633 12.519 188.648 12.519 L 182.109 12.519 Z M 191.109 3.519 A 2.172 2.172 0 0 1 189.563 2.992 Q 189 2.464 189 1.761 A 1.637 1.637 0 0 1 189.563 0.531 Q 190.125 0.004 191.109 0.004 L 197.648 0.004 A 2.172 2.172 0 0 1 199.195 0.531 Q 199.758 1.058 199.758 1.761 A 1.637 1.637 0 0 1 199.195 2.992 Q 198.633 3.519 197.648 3.519 L 191.109 3.519 Z M 218.109 26.019 A 2.172 2.172 0 0 1 216.563 25.492 Q 216 24.964 216 24.261 A 1.637 1.637 0 0 1 216.563 23.031 Q 217.125 22.504 218.109 22.504 L 224.648 22.504 A 2.172 2.172 0 0 1 226.195 23.031 Q 226.758 23.558 226.758 24.261 A 1.637 1.637 0 0 1 226.195 25.492 Q 225.633 26.019 224.648 26.019 L 218.109 26.019 Z M 218.109 12.519 A 2.172 2.172 0 0 1 216.563 11.992 Q 216 11.464 216 10.761 A 1.637 1.637 0 0 1 216.563 9.531 Q 217.125 9.004 218.109 9.004 L 224.648 9.004 A 2.172 2.172 0 0 1 226.195 9.531 Q 226.758 10.058 226.758 10.761 A 1.637 1.637 0 0 1 226.195 11.992 Q 225.633 12.519 224.648 12.519 L 218.109 12.519 Z M 218.109 8.019 A 2.172 2.172 0 0 1 216.563 7.492 Q 216 6.964 216 6.261 A 1.637 1.637 0 0 1 216.563 5.031 Q 217.125 4.504 218.109 4.504 L 224.648 4.504 A 2.172 2.172 0 0 1 226.195 5.031 Q 226.758 5.558 226.758 6.261 A 1.637 1.637 0 0 1 226.195 7.492 Q 225.633 8.019 224.648 8.019 L 218.109 8.019 Z M 263.109 30.519 A 2.172 2.172 0 0 1 261.563 29.992 Q 261 29.464 261 28.761 A 1.637 1.637 0 0 1 261.563 27.531 Q 262.125 27.004 263.109 27.004 L 269.648 27.004 A 2.172 2.172 0 0 1 271.195 27.531 Q 271.758 28.058 271.758 28.761 A 1.637 1.637 0 0 1 271.195 29.992 Q 270.633 30.519 269.648 30.519 L 263.109 30.519 Z M 263.109 12.519 A 2.172 2.172 0 0 1 261.563 11.992 Q 261 11.464 261 10.761 A 1.637 1.637 0 0 1 261.563 9.531 Q 262.125 9.004 263.109 9.004 L 269.648 9.004 A 2.172 2.172 0 0 1 271.195 9.531 Q 271.758 10.058 271.758 10.761 A 1.637 1.637 0 0 1 271.195 11.992 Q 270.633 12.519 269.648 12.519 L 263.109 12.519 Z M 263.109 8.019 A 2.172 2.172 0 0 1 261.563 7.492 Q 261 6.964 261 6.261 A 1.637 1.637 0 0 1 261.563 5.031 Q 262.125 4.504 263.109 4.504 L 269.648 4.504 A 2.172 2.172 0 0 1 271.195 5.031 Q 271.758 5.558 271.758 6.261 A 1.637 1.637 0 0 1 271.195 7.492 Q 270.633 8.019 269.648 8.019 L 263.109 8.019 Z M 299.109 30.519 A 2.172 2.172 0 0 1 297.563 29.992 Q 297 29.464 297 28.761 A 1.637 1.637 0 0 1 297.563 27.531 Q 298.125 27.004 299.109 27.004 L 305.648 27.004 A 2.172 2.172 0 0 1 307.195 27.531 Q 307.758 28.058 307.758 28.761 A 1.637 1.637 0 0 1 307.195 29.992 Q 306.633 30.519 305.648 30.519 L 299.109 30.519 Z M 335.109 8.019 A 2.172 2.172 0 0 1 333.563 7.492 Q 333 6.964 333 6.261 A 1.637 1.637 0 0 1 333.563 5.031 Q 334.125 4.504 335.109 4.504 L 341.648 4.504 A 2.172 2.172 0 0 1 343.195 5.031 Q 343.758 5.558 343.758 6.261 A 1.637 1.637 0 0 1 343.195 7.492 Q 342.633 8.019 341.648 8.019 L 335.109 8.019 Z M 362.109 30.519 A 2.172 2.172 0 0 1 360.563 29.992 Q 360 29.464 360 28.761 A 1.637 1.637 0 0 1 360.563 27.531 Q 361.125 27.004 362.109 27.004 L 368.648 27.004 A 2.172 2.172 0 0 1 370.195 27.531 Q 370.758 28.058 370.758 28.761 A 1.637 1.637 0 0 1 370.195 29.992 Q 369.633 30.519 368.648 30.519 L 362.109 30.519 Z M 362.109 26.019 A 2.172 2.172 0 0 1 360.563 25.492 Q 360 24.964 360 24.261 A 1.637 1.637 0 0 1 360.563 23.031 Q 361.125 22.504 362.109 22.504 L 368.648 22.504 A 2.172 2.172 0 0 1 370.195 23.031 Q 370.758 23.558 370.758 24.261 A 1.637 1.637 0 0 1 370.195 25.492 Q 369.633 26.019 368.648 26.019 L 362.109 26.019 Z M 362.109 21.519 A 2.172 2.172 0 0 1 360.563 20.992 Q 360 20.464 360 19.761 A 1.637 1.637 0 0 1 360.563 18.531 Q 361.125 18.004 362.109 18.004 L 368.648 18.004 A 2.172 2.172 0 0 1 370.195 18.531 Q 370.758 19.058 370.758 19.761 A 1.637 1.637 0 0 1 370.195 20.992 Q 369.633 21.519 368.648 21.519 L 362.109 21.519 Z M 362.109 17.019 A 2.172 2.172 0 0 1 360.563 16.492 Q 360 15.964 360 15.261 A 1.637 1.637 0 0 1 360.563 14.031 Q 361.125 13.504 362.109 13.504 L 368.648 13.504 A 2.172 2.172 0 0 1 370.195 14.031 Q 370.758 14.558 370.758 15.261 A 1.637 1.637 0 0 1 370.195 16.492 Q 369.633 17.019 368.648 17.019 L 362.109 17.019 Z M 398.109 21.519 A 2.172 2.172 0 0 1 396.563 20.992 Q 396 20.464 396 19.761 A 1.637 1.637 0 0 1 396.563 18.531 Q 397.125 18.004 398.109 18.004 L 404.648 18.004 A 2.172 2.172 0 0 1 406.195 18.531 Q 406.758 19.058 406.758 19.761 A 1.637 1.637 0 0 1 406.195 20.992 Q 405.633 21.519 404.648 21.519 L 398.109 21.519 Z M 398.109 17.019 A 2.172 2.172 0 0 1 396.563 16.492 Q 396 15.964 396 15.261 A 1.637 1.637 0 0 1 396.563 14.031 Q 397.125 13.504 398.109 13.504 L 404.648 13.504 A 2.172 2.172 0 0 1 406.195 14.031 Q 406.758 14.558 406.758 15.261 A 1.637 1.637 0 0 1 406.195 16.492 Q 405.633 17.019 404.648 17.019 L 398.109 17.019 Z M 20.109 26.019 A 2.172 2.172 0 0 1 18.563 25.492 Q 18 24.964 18 24.261 A 1.637 1.637 0 0 1 18.563 23.031 Q 19.125 22.504 20.109 22.504 L 26.648 22.504 A 2.172 2.172 0 0 1 28.195 23.031 Q 28.758 23.558 28.758 24.261 A 1.637 1.637 0 0 1 28.195 25.492 Q 27.633 26.019 26.648 26.019 L 20.109 26.019 Z M 20.109 21.519 A 2.172 2.172 0 0 1 18.563 20.992 Q 18 20.464 18 19.761 A 1.637 1.637 0 0 1 18.563 18.531 Q 19.125 18.004 20.109 18.004 L 26.648 18.004 A 2.172 2.172 0 0 1 28.195 18.531 Q 28.758 19.058 28.758 19.761 A 1.637 1.637 0 0 1 28.195 20.992 Q 27.633 21.519 26.648 21.519 L 20.109 21.519 Z M 20.109 12.519 A 2.172 2.172 0 0 1 18.563 11.992 Q 18 11.464 18 10.761 A 1.637 1.637 0 0 1 18.563 9.531 Q 19.125 9.004 20.109 9.004 L 26.648 9.004 A 2.172 2.172 0 0 1 28.195 9.531 Q 28.758 10.058 28.758 10.761 A 1.637 1.637 0 0 1 28.195 11.992 Q 27.633 12.519 26.648 12.519 L 20.109 12.519 Z M 20.109 8.019 A 2.172 2.172 0 0 1 18.563 7.492 Q 18 6.964 18 6.261 A 1.637 1.637 0 0 1 18.563 5.031 Q 19.125 4.504 20.109 4.504 L 26.648 4.504 A 2.172 2.172 0 0 1 28.195 5.031 Q 28.758 5.558 28.758 6.261 A 1.637 1.637 0 0 1 28.195 7.492 Q 27.633 8.019 26.648 8.019 L 20.109 8.019 Z M 20.109 3.519 A 2.172 2.172 0 0 1 18.563 2.992 Q 18 2.464 18 1.761 A 1.637 1.637 0 0 1 18.563 0.531 Q 19.125 0.004 20.109 0.004 L 26.648 0.004 A 2.172 2.172 0 0 1 28.195 0.531 Q 28.758 1.058 28.758 1.761 A 1.637 1.637 0 0 1 28.195 2.992 Q 27.633 3.519 26.648 3.519 L 20.109 3.519 Z M 56.109 26.019 A 2.172 2.172 0 0 1 54.563 25.492 Q 54 24.964 54 24.261 A 1.637 1.637 0 0 1 54.563 23.031 Q 55.125 22.504 56.109 22.504 L 62.648 22.504 A 2.172 2.172 0 0 1 64.195 23.031 Q 64.758 23.558 64.758 24.261 A 1.637 1.637 0 0 1 64.195 25.492 Q 63.633 26.019 62.648 26.019 L 56.109 26.019 Z M 56.109 21.519 A 2.172 2.172 0 0 1 54.563 20.992 Q 54 20.464 54 19.761 A 1.637 1.637 0 0 1 54.563 18.531 Q 55.125 18.004 56.109 18.004 L 62.648 18.004 A 2.172 2.172 0 0 1 64.195 18.531 Q 64.758 19.058 64.758 19.761 A 1.637 1.637 0 0 1 64.195 20.992 Q 63.633 21.519 62.648 21.519 L 56.109 21.519 Z M 56.109 12.519 A 2.172 2.172 0 0 1 54.563 11.992 Q 54 11.464 54 10.761 A 1.637 1.637 0 0 1 54.563 9.531 Q 55.125 9.004 56.109 9.004 L 62.648 9.004 A 2.172 2.172 0 0 1 64.195 9.531 Q 64.758 10.058 64.758 10.761 A 1.637 1.637 0 0 1 64.195 11.992 Q 63.633 12.519 62.648 12.519 L 56.109 12.519 Z M 87.609 26.019 A 2.172 2.172 0 0 1 86.063 25.492 Q 85.5 24.964 85.5 24.261 A 1.637 1.637 0 0 1 86.063 23.031 Q 86.625 22.504 87.609 22.504 L 94.148 22.504 A 2.172 2.172 0 0 1 95.695 23.031 Q 96.258 23.558 96.258 24.261 A 1.637 1.637 0 0 1 95.695 25.492 Q 95.133 26.019 94.148 26.019 L 87.609 26.019 Z M 92.109 12.519 A 2.172 2.172 0 0 1 90.563 11.992 Q 90 11.464 90 10.761 A 1.637 1.637 0 0 1 90.563 9.531 Q 91.125 9.004 92.109 9.004 L 98.648 9.004 A 2.172 2.172 0 0 1 100.195 9.531 Q 100.758 10.058 100.758 10.761 A 1.637 1.637 0 0 1 100.195 11.992 Q 99.633 12.519 98.648 12.519 L 92.109 12.519 Z M 92.109 8.019 A 2.172 2.172 0 0 1 90.563 7.492 Q 90 6.964 90 6.261 A 1.637 1.637 0 0 1 90.563 5.031 Q 91.125 4.504 92.109 4.504 L 98.648 4.504 A 2.172 2.172 0 0 1 100.195 5.031 Q 100.758 5.558 100.758 6.261 A 1.637 1.637 0 0 1 100.195 7.492 Q 99.633 8.019 98.648 8.019 L 92.109 8.019 Z M 123.609 26.019 A 2.172 2.172 0 0 1 122.063 25.492 Q 121.5 24.964 121.5 24.261 A 1.637 1.637 0 0 1 122.063 23.031 Q 122.625 22.504 123.609 22.504 L 130.148 22.504 A 2.172 2.172 0 0 1 131.695 23.031 Q 132.258 23.558 132.258 24.261 A 1.637 1.637 0 0 1 131.695 25.492 Q 131.133 26.019 130.148 26.019 L 123.609 26.019 Z M 128.109 21.519 A 2.172 2.172 0 0 1 126.563 20.992 Q 126 20.464 126 19.761 A 1.637 1.637 0 0 1 126.563 18.531 Q 127.125 18.004 128.109 18.004 L 134.648 18.004 A 2.172 2.172 0 0 1 136.195 18.531 Q 136.758 19.058 136.758 19.761 A 1.637 1.637 0 0 1 136.195 20.992 Q 135.633 21.519 134.648 21.519 L 128.109 21.519 Z M 128.109 17.019 A 2.172 2.172 0 0 1 126.563 16.492 Q 126 15.964 126 15.261 A 1.637 1.637 0 0 1 126.563 14.031 Q 127.125 13.504 128.109 13.504 L 134.648 13.504 A 2.172 2.172 0 0 1 136.195 14.031 Q 136.758 14.558 136.758 15.261 A 1.637 1.637 0 0 1 136.195 16.492 Q 135.633 17.019 134.648 17.019 L 128.109 17.019 Z M 128.109 12.519 A 2.172 2.172 0 0 1 126.563 11.992 Q 126 11.464 126 10.761 A 1.637 1.637 0 0 1 126.563 9.531 Q 127.125 9.004 128.109 9.004 L 134.648 9.004 A 2.172 2.172 0 0 1 136.195 9.531 Q 136.758 10.058 136.758 10.761 A 1.637 1.637 0 0 1 136.195 11.992 Q 135.633 12.519 134.648 12.519 L 128.109 12.519 Z M 123.609 8.019 A 2.172 2.172 0 0 1 122.063 7.492 Q 121.5 6.964 121.5 6.261 A 1.637 1.637 0 0 1 122.063 5.031 Q 122.625 4.504 123.609 4.504 L 130.148 4.504 A 2.172 2.172 0 0 1 131.695 5.031 Q 132.258 5.558 132.258 6.261 A 1.637 1.637 0 0 1 131.695 7.492 Q 131.133 8.019 130.148 8.019 L 123.609 8.019 Z M 164.109 26.019 A 2.172 2.172 0 0 1 162.563 25.492 Q 162 24.964 162 24.261 A 1.637 1.637 0 0 1 162.563 23.031 Q 163.125 22.504 164.109 22.504 L 170.648 22.504 A 2.172 2.172 0 0 1 172.195 23.031 Q 172.758 23.558 172.758 24.261 A 1.637 1.637 0 0 1 172.195 25.492 Q 171.633 26.019 170.648 26.019 L 164.109 26.019 Z M 164.109 8.019 A 2.172 2.172 0 0 1 162.563 7.492 Q 162 6.964 162 6.261 A 1.637 1.637 0 0 1 162.563 5.031 Q 163.125 4.504 164.109 4.504 L 170.648 4.504 A 2.172 2.172 0 0 1 172.195 5.031 Q 172.758 5.558 172.758 6.261 A 1.637 1.637 0 0 1 172.195 7.492 Q 171.633 8.019 170.648 8.019 L 164.109 8.019 Z M 200.109 26.019 A 2.172 2.172 0 0 1 198.563 25.492 Q 198 24.964 198 24.261 A 1.637 1.637 0 0 1 198.563 23.031 Q 199.125 22.504 200.109 22.504 L 206.648 22.504 A 2.172 2.172 0 0 1 208.195 23.031 Q 208.758 23.558 208.758 24.261 A 1.637 1.637 0 0 1 208.195 25.492 Q 207.633 26.019 206.648 26.019 L 200.109 26.019 Z M 200.109 21.519 A 2.172 2.172 0 0 1 198.563 20.992 Q 198 20.464 198 19.761 A 1.637 1.637 0 0 1 198.563 18.531 Q 199.125 18.004 200.109 18.004 L 206.648 18.004 A 2.172 2.172 0 0 1 208.195 18.531 Q 208.758 19.058 208.758 19.761 A 1.637 1.637 0 0 1 208.195 20.992 Q 207.633 21.519 206.648 21.519 L 200.109 21.519 Z M 200.109 12.519 A 2.172 2.172 0 0 1 198.563 11.992 Q 198 11.464 198 10.761 A 1.637 1.637 0 0 1 198.563 9.531 Q 199.125 9.004 200.109 9.004 L 206.648 9.004 A 2.172 2.172 0 0 1 208.195 9.531 Q 208.758 10.058 208.758 10.761 A 1.637 1.637 0 0 1 208.195 11.992 Q 207.633 12.519 206.648 12.519 L 200.109 12.519 Z M 236.109 26.019 A 2.172 2.172 0 0 1 234.563 25.492 Q 234 24.964 234 24.261 A 1.637 1.637 0 0 1 234.563 23.031 Q 235.125 22.504 236.109 22.504 L 242.648 22.504 A 2.172 2.172 0 0 1 244.195 23.031 Q 244.758 23.558 244.758 24.261 A 1.637 1.637 0 0 1 244.195 25.492 Q 243.633 26.019 242.648 26.019 L 236.109 26.019 Z M 236.109 21.519 A 2.172 2.172 0 0 1 234.563 20.992 Q 234 20.464 234 19.761 A 1.637 1.637 0 0 1 234.563 18.531 Q 235.125 18.004 236.109 18.004 L 242.648 18.004 A 2.172 2.172 0 0 1 244.195 18.531 Q 244.758 19.058 244.758 19.761 A 1.637 1.637 0 0 1 244.195 20.992 Q 243.633 21.519 242.648 21.519 L 236.109 21.519 Z M 236.109 8.019 A 2.172 2.172 0 0 1 234.563 7.492 Q 234 6.964 234 6.261 A 1.637 1.637 0 0 1 234.563 5.031 Q 235.125 4.504 236.109 4.504 L 242.648 4.504 A 2.172 2.172 0 0 1 244.195 5.031 Q 244.758 5.558 244.758 6.261 A 1.637 1.637 0 0 1 244.195 7.492 Q 243.633 8.019 242.648 8.019 L 236.109 8.019 Z M 263.109 26.019 A 2.172 2.172 0 0 1 261.563 25.492 Q 261 24.964 261 24.261 A 1.637 1.637 0 0 1 261.563 23.031 Q 262.125 22.504 263.109 22.504 L 269.648 22.504 A 2.172 2.172 0 0 1 271.195 23.031 Q 271.758 23.558 271.758 24.261 A 1.637 1.637 0 0 1 271.195 25.492 Q 270.633 26.019 269.648 26.019 L 263.109 26.019 Z M 263.109 21.519 A 2.172 2.172 0 0 1 261.563 20.992 Q 261 20.464 261 19.761 A 1.637 1.637 0 0 1 261.563 18.531 Q 262.125 18.004 263.109 18.004 L 269.648 18.004 A 2.172 2.172 0 0 1 271.195 18.531 Q 271.758 19.058 271.758 19.761 A 1.637 1.637 0 0 1 271.195 20.992 Q 270.633 21.519 269.648 21.519 L 263.109 21.519 Z M 263.109 17.019 A 2.172 2.172 0 0 1 261.563 16.492 Q 261 15.964 261 15.261 A 1.637 1.637 0 0 1 261.563 14.031 Q 262.125 13.504 263.109 13.504 L 269.648 13.504 A 2.172 2.172 0 0 1 271.195 14.031 Q 271.758 14.558 271.758 15.261 A 1.637 1.637 0 0 1 271.195 16.492 Q 270.633 17.019 269.648 17.019 L 263.109 17.019 Z M 299.109 26.019 A 2.172 2.172 0 0 1 297.563 25.492 Q 297 24.964 297 24.261 A 1.637 1.637 0 0 1 297.563 23.031 Q 298.125 22.504 299.109 22.504 L 305.648 22.504 A 2.172 2.172 0 0 1 307.195 23.031 Q 307.758 23.558 307.758 24.261 A 1.637 1.637 0 0 1 307.195 25.492 Q 306.633 26.019 305.648 26.019 L 299.109 26.019 Z M 335.109 26.019 A 2.172 2.172 0 0 1 333.563 25.492 Q 333 24.964 333 24.261 A 1.637 1.637 0 0 1 333.563 23.031 Q 334.125 22.504 335.109 22.504 L 341.648 22.504 A 2.172 2.172 0 0 1 343.195 23.031 Q 343.758 23.558 343.758 24.261 A 1.637 1.637 0 0 1 343.195 25.492 Q 342.633 26.019 341.648 26.019 L 335.109 26.019 Z M 335.109 21.519 A 2.172 2.172 0 0 1 333.563 20.992 Q 333 20.464 333 19.761 A 1.637 1.637 0 0 1 333.563 18.531 Q 334.125 18.004 335.109 18.004 L 341.648 18.004 A 2.172 2.172 0 0 1 343.195 18.531 Q 343.758 19.058 343.758 19.761 A 1.637 1.637 0 0 1 343.195 20.992 Q 342.633 21.519 341.648 21.519 L 335.109 21.519 Z M 380.109 26.019 A 2.172 2.172 0 0 1 378.563 25.492 Q 378 24.964 378 24.261 A 1.637 1.637 0 0 1 378.563 23.031 Q 379.125 22.504 380.109 22.504 L 386.648 22.504 A 2.172 2.172 0 0 1 388.195 23.031 Q 388.758 23.558 388.758 24.261 A 1.637 1.637 0 0 1 388.195 25.492 Q 387.633 26.019 386.648 26.019 L 380.109 26.019 Z M 380.109 21.519 A 2.172 2.172 0 0 1 378.563 20.992 Q 378 20.464 378 19.761 A 1.637 1.637 0 0 1 378.563 18.531 Q 379.125 18.004 380.109 18.004 L 386.648 18.004 A 2.172 2.172 0 0 1 388.195 18.531 Q 388.758 19.058 388.758 19.761 A 1.637 1.637 0 0 1 388.195 20.992 Q 387.633 21.519 386.648 21.519 L 380.109 21.519 Z M 380.109 17.019 A 2.172 2.172 0 0 1 378.563 16.492 Q 378 15.964 378 15.261 A 1.637 1.637 0 0 1 378.563 14.031 Q 379.125 13.504 380.109 13.504 L 386.648 13.504 A 2.172 2.172 0 0 1 388.195 14.031 Q 388.758 14.558 388.758 15.261 A 1.637 1.637 0 0 1 388.195 16.492 Q 387.633 17.019 386.648 17.019 L 380.109 17.019 Z M 416.109 21.519 A 2.172 2.172 0 0 1 414.563 20.992 Q 414 20.464 414 19.761 A 1.637 1.637 0 0 1 414.563 18.531 Q 415.125 18.004 416.109 18.004 L 422.648 18.004 A 2.172 2.172 0 0 1 424.195 18.531 Q 424.758 19.058 424.758 19.761 A 1.637 1.637 0 0 1 424.195 20.992 Q 423.633 21.519 422.648 21.519 L 416.109 21.519 Z M 416.109 17.019 A 2.172 2.172 0 0 1 414.563 16.492 Q 414 15.964 414 15.261 A 1.637 1.637 0 0 1 414.563 14.031 Q 415.125 13.504 416.109 13.504 L 422.648 13.504 A 2.172 2.172 0 0 1 424.195 14.031 Q 424.758 14.558 424.758 15.261 A 1.637 1.637 0 0 1 424.195 16.492 Q 423.633 17.019 422.648 17.019 L 416.109 17.019 Z M 20.109 30.519 A 2.172 2.172 0 0 1 18.563 29.992 Q 18 29.464 18 28.761 A 1.637 1.637 0 0 1 18.563 27.531 Q 19.125 27.004 20.109 27.004 L 26.648 27.004 A 2.172 2.172 0 0 1 28.195 27.531 Q 28.758 28.058 28.758 28.761 A 1.637 1.637 0 0 1 28.195 29.992 Q 27.633 30.519 26.648 30.519 L 20.109 30.519 Z M 56.109 30.519 A 2.172 2.172 0 0 1 54.563 29.992 Q 54 29.464 54 28.761 A 1.637 1.637 0 0 1 54.563 27.531 Q 55.125 27.004 56.109 27.004 L 62.648 27.004 A 2.172 2.172 0 0 1 64.195 27.531 Q 64.758 28.058 64.758 28.761 A 1.637 1.637 0 0 1 64.195 29.992 Q 63.633 30.519 62.648 30.519 L 56.109 30.519 Z M 92.109 30.519 A 2.172 2.172 0 0 1 90.563 29.992 Q 90 29.464 90 28.761 A 1.637 1.637 0 0 1 90.563 27.531 Q 91.125 27.004 92.109 27.004 L 98.648 27.004 A 2.172 2.172 0 0 1 100.195 27.531 Q 100.758 28.058 100.758 28.761 A 1.637 1.637 0 0 1 100.195 29.992 Q 99.633 30.519 98.648 30.519 L 92.109 30.519 Z M 200.109 30.519 A 2.172 2.172 0 0 1 198.563 29.992 Q 198 29.464 198 28.761 A 1.637 1.637 0 0 1 198.563 27.531 Q 199.125 27.004 200.109 27.004 L 206.648 27.004 A 2.172 2.172 0 0 1 208.195 27.531 Q 208.758 28.058 208.758 28.761 A 1.637 1.637 0 0 1 208.195 29.992 Q 207.633 30.519 206.648 30.519 L 200.109 30.519 Z M 380.109 30.519 A 2.172 2.172 0 0 1 378.563 29.992 Q 378 29.464 378 28.761 A 1.637 1.637 0 0 1 378.563 27.531 Q 379.125 27.004 380.109 27.004 L 386.648 27.004 A 2.172 2.172 0 0 1 388.195 27.531 Q 388.758 28.058 388.758 28.761 A 1.637 1.637 0 0 1 388.195 29.992 Q 387.633 30.519 386.648 30.519 L 380.109 30.519 Z M 416.109 30.519 A 2.172 2.172 0 0 1 414.563 29.992 Q 414 29.464 414 28.761 A 1.637 1.637 0 0 1 414.563 27.531 Q 415.125 27.004 416.109 27.004 L 422.648 27.004 A 2.172 2.172 0 0 1 424.195 27.531 Q 424.758 28.058 424.758 28.761 A 1.637 1.637 0 0 1 424.195 29.992 Q 423.633 30.519 422.648 30.519 L 416.109 30.519 Z"/></g></svg>