<?xml version="1.0" encoding="UTF-8"?>
<svg version="1.1" xmlns="http://www.w3.org/2000/svg" width="64" height="64">
<path d="M0 0 C1.890625 0.86328125 1.890625 0.86328125 3.890625 3.86328125 C6.65080605 11.73490869 7.73193318 22.23041771 4.515625 30.05078125 C2.890625 32.86328125 2.890625 32.86328125 0.890625 34.86328125 C0.5288127 37.10307171 0.24892278 39.35648228 0.015625 41.61328125 C-0.94531147 48.89852053 -2.16017192 52.06929939 -7.484375 57.11328125 C-12.18533346 60.24725355 -16.57283104 61.11623531 -22.1640625 61.05859375 C-23.27265625 61.05214844 -24.38125 61.04570313 -25.5234375 61.0390625 C-26.66554688 61.02230469 -27.80765625 61.00554687 -28.984375 60.98828125 C-30.73234375 60.97474609 -30.73234375 60.97474609 -32.515625 60.9609375 C-35.38042077 60.93745557 -38.24479035 60.90461266 -41.109375 60.86328125 C-41.36332031 60.22261719 -41.61726563 59.58195312 -41.87890625 58.921875 C-42.22308594 58.05691406 -42.56726563 57.19195312 -42.921875 56.30078125 C-43.28474609 55.38449951 -43.64761719 54.46821777 -44.02148438 53.52416992 C-44.89644506 51.38408992 -45.8364048 49.31285465 -46.828125 47.2265625 C-49.45526398 40.33032268 -49.24899374 31.93636303 -47.265625 24.84765625 C-43.93434938 17.50984643 -38.69271428 12.71893909 -31.609375 9.05078125 C-26.9114937 7.48792173 -21.95174749 7.31519565 -17.05175781 6.84912109 C-11.54397456 6.20365753 -8.08160713 4.57356749 -3.90625 1.0078125 C-2.109375 -0.13671875 -2.109375 -0.13671875 0 0 Z " fill="#1E0C02" transform="translate(53.109375,3.13671875)"/>
<path d="M0 0 C0.125 6.75 0.125 6.75 -1 9 C-0.01 9 0.98 9 2 9 C1.835 9.928125 1.67 10.85625 1.5 11.8125 C0.92251612 14.95621353 0.92251612 14.95621353 1 18 C0.65027266 20.79781875 0.3410072 22.55049051 -1.375 24.8125 C-3 26 -3 26 -6 26 C-6.495 24.783125 -6.99 23.56625 -7.5 22.3125 C-9.96185647 17.48314393 -12.8927635 14.85872714 -18 13 C-23.64481418 11.99757303 -28.46065697 12.27184255 -33.5 15.125 C-36.95102681 17.67083945 -38.75586688 19.80105071 -40 24 C-41.00042343 32.25665922 -39.57179808 37.99948268 -34.7890625 44.6953125 C-32.01503322 46.71829455 -29.56809674 46.39660126 -26.1875 46.375 C-24.38345703 46.38660156 -24.38345703 46.38660156 -22.54296875 46.3984375 C-18.73738515 45.97046669 -16.32527067 44.83496688 -13 43 C-12.34 43 -11.68 43 -11 43 C-9.07794619 38.41664092 -7.54269924 33.72065967 -6 29 C-5.67 29 -5.34 29 -5 29 C-4.37670514 38.73032529 -4.37670514 38.73032529 -6.6875 43.4375 C-12.10277505 49.43821019 -17.05579631 51.69211281 -25 53 C-29.68018875 53.22445803 -34.31916763 53.18449996 -39 53 C-39.38091797 51.948125 -39.38091797 51.948125 -39.76953125 50.875 C-40.11371094 49.92625 -40.45789063 48.9775 -40.8125 48 C-41.17472656 46.99066406 -41.53695312 45.98132812 -41.91015625 44.94140625 C-42.54575466 43.22597397 -43.20783142 41.51911809 -43.93359375 39.83984375 C-46.47553248 33.91676164 -47.14769669 28.07107505 -45.37890625 21.796875 C-42.45892489 14.99656286 -37.04003691 11.72864844 -30.8125 8.1875 C-26.22509141 6.75863503 -21.94132489 6.57924281 -17.1640625 6.3046875 C-10.93692978 5.70503768 -5.34323864 0 0 0 Z " fill="#E8C077" transform="translate(54,6)"/>
<path d="M0 0 C4.35835033 2.25988536 7.22759502 4.37205366 9 9 C9.6520567 14.26475412 9.65063461 18.56860385 7.4375 23.4375 C3.49682556 27.58026031 0.16089653 29.73462674 -5.5625 30.4375 C-10.91396337 29.75640466 -14.33337955 28.01475004 -17.8125 23.9375 C-21.316485 19.23214872 -21.70170451 15.77931634 -21 10 C-16.30141608 0.77685378 -9.77076292 -2.15457849 0 0 Z " fill="#AF8B4E" transform="translate(36,21)"/>
<path d="M0 0 C2.31 0.33 4.62 0.66 7 1 C8.99912802 6.61398965 6.77520138 12.55289919 5 18 C3.52233465 20.5893885 2.24792328 21.98263296 0 24 C-0.66 24 -1.32 24 -2 24 C-2 24.99 -2 25.98 -2 27 C-0.68 27.33 0.64 27.66 2 28 C-3.26188885 28.31571333 -6.55464669 27.89914347 -11 25 C-12.84742576 23.08937284 -14.39182024 21.12847322 -16 19 C-15.236875 18.278125 -14.47375 17.55625 -13.6875 16.8125 C-11.00885792 14.23041254 -11.00885792 14.23041254 -9.625 11.625 C-7.65266702 8.43892365 -5.22733473 6.12347671 -2.5234375 3.55078125 C-0.90086307 2.05820739 -0.90086307 2.05820739 0 0 Z " fill="#876E42" transform="translate(32,23)"/>
<path d="M0 0 C0.33 0 0.66 0 1 0 C1.33 2.64 1.66 5.28 2 8 C2.33 8 2.66 8 3 8 C3.33 6.35 3.66 4.7 4 3 C4.33 3 4.66 3 5 3 C5.09796875 3.72445312 5.1959375 4.44890625 5.296875 5.1953125 C6.41167785 12.40308955 7.78377093 16.78377093 13 22 C16.15080174 22.35979951 16.15080174 22.35979951 19.75 22.3125 C21.56757812 22.33763672 21.56757812 22.33763672 23.421875 22.36328125 C27.26831368 21.97275855 29.64805673 20.8572902 33 19 C33.66 19 34.32 19 35 19 C36.92205381 14.41664092 38.45730076 9.72065967 40 5 C40.33 5 40.66 5 41 5 C41.62329486 14.73032529 41.62329486 14.73032529 39.3125 19.4375 C33.89722495 25.43821019 28.94420369 27.69211281 21 29 C16.31981125 29.22445803 11.68083237 29.18449996 7 29 C6.74605469 28.29875 6.49210938 27.5975 6.23046875 26.875 C5.88628906 25.92625 5.54210937 24.9775 5.1875 24 C4.82527344 22.99066406 4.46304687 21.98132813 4.08984375 20.94140625 C3.45424534 19.22597397 2.79216858 17.51911809 2.06640625 15.83984375 C-0.21904613 10.51441165 -0.31821858 5.75150625 0 0 Z " fill="#E7CB84" transform="translate(8,30)"/>
<path d="M0 0 C4.49970012 2.59404354 7.26161755 5.49231906 9.65625 10.08203125 C9.65625 11.07203125 9.65625 12.06203125 9.65625 13.08203125 C10.31625 13.41203125 10.97625 13.74203125 11.65625 14.08203125 C6.72818367 28.40487934 6.72818367 28.40487934 1.65625 32.08203125 C-4.37941293 35.00969903 -10.79051238 35.09613133 -17.34375 34.08203125 C-21.77577999 31.2493514 -23.68257126 26.941162 -25.34375 22.08203125 C-26.27237359 15.54256619 -25.8588082 10.14110742 -21.87890625 4.7421875 C-16.11305701 -1.49314564 -8.01005274 -3.13727066 0 0 Z M-20.71875 7.70703125 C-23.76082148 12.15313572 -23.98830072 15.7734399 -23.34375 21.08203125 C-20.64195537 26.38555405 -17.04878105 30.18035423 -11.34375 32.08203125 C-5.51282075 32.64269752 -1.86043367 31.64842257 2.65625 28.08203125 C6.14439876 24.41500307 6.94904901 21.50806774 7.15625 16.58203125 C6.94203227 11.6483291 6.20336702 8.7178262 2.65625 5.08203125 C-5.92501873 -0.74227668 -13.64866671 -0.10727134 -20.71875 7.70703125 Z " fill="#2B1809" transform="translate(38.34375,18.91796875)"/>
<path d="M0 0 C0.125 6.75 0.125 6.75 -1 9 C-0.01 9 0.98 9 2 9 C1.835 9.928125 1.67 10.85625 1.5 11.8125 C0.92251612 14.95621353 0.92251612 14.95621353 1 18 C0.65027266 20.79781875 0.3410072 22.55049051 -1.375 24.8125 C-3 26 -3 26 -6 26 C-6.495 24.783125 -6.99 23.56625 -7.5 22.3125 C-9.91917186 17.4912529 -13.08123591 15.09891603 -18 13 C-20.40183196 12.39388798 -22.51253006 12.15546687 -25 12 C-25 11.67 -25 11.34 -25 11 C-19.72 11 -14.44 11 -9 11 C-8.01 9.02 -7.02 7.04 -6 5 C-1.43478261 0 -1.43478261 0 0 0 Z " fill="#AF9058" transform="translate(54,6)"/>
<path d="M0 0 C2.64 0 5.28 0 8 0 C7.01 0.33 6.02 0.66 5 1 C4.30559127 2.3190977 3.64213895 3.65468227 3 5 C1.37890625 6.74609375 1.37890625 6.74609375 -0.4375 8.4375 C-2.62586574 10.54448024 -4.10898594 12.18164323 -5.6875 14.8125 C-7.17699809 17.29499682 -8.33143853 17.98778703 -11 19 C-12 18 -12 18 -12.09765625 15.93359375 C-12.08605469 15.10988281 -12.07445312 14.28617188 -12.0625 13.4375 C-12.05347656 12.61121094 -12.04445313 11.78492188 -12.03515625 10.93359375 C-12.02355469 10.29550781 -12.01195312 9.65742188 -12 9 C-11.34 9.66 -10.68 10.32 -10 11 C-9.40251953 10.15115234 -9.40251953 10.15115234 -8.79296875 9.28515625 C-8.26316406 8.55167969 -7.73335937 7.81820313 -7.1875 7.0625 C-6.66542969 6.33160156 -6.14335937 5.60070312 -5.60546875 4.84765625 C-4 3 -4 3 -1 2 C-0.67 1.34 -0.34 0.68 0 0 Z " fill="#AA8A51" transform="translate(27,22)"/>
<path d="M0 0 C0.66 0.33 1.32 0.66 2 1 C-0.1604448 16.47895155 -0.1604448 16.47895155 -4.5625 21.9375 C-6 23 -6 23 -8 23 C-8 23.99 -8 24.98 -8 26 C-6.68 26.33 -5.36 26.66 -4 27 C-7.375 27.125 -7.375 27.125 -11 27 C-11.66 26.34 -12.32 25.68 -13 25 C-11.74367028 20.22048477 -10.24097977 17.93226201 -6.5 14.75 C-1.73015214 10.25577738 -0.41778139 6.45539638 0 0 Z " fill="#997B46" transform="translate(38,24)"/>
<path d="M0 0 C0.33 0.66 0.66 1.32 1 2 C0.34011002 3.33670021 -0.32753419 4.66958204 -1 6 C-1.73285105 10.68683808 -1.44402628 14.14366361 0.75 18.375 C4.25882899 22.46863382 6.91001506 24.27408152 12.25 25.1875 C13.14203125 25.34605469 14.0340625 25.50460938 14.953125 25.66796875 C15.62859375 25.77753906 16.3040625 25.88710938 17 26 C16.67 26.66 16.34 27.32 16 28 C5.58377375 29.06184831 5.58377375 29.06184831 1.9375 26.6171875 C-2.26301079 21.76559753 -4.28587062 16.88524482 -4.25 10.4375 C-4.25773438 9.04337891 -4.25773438 9.04337891 -4.265625 7.62109375 C-3.99086241 4.90983348 -3.46833464 3.28005484 -2 1 C-1.34 0.67 -0.68 0.34 0 0 Z " fill="#200E03" transform="translate(17,25)"/>
<path d="M0 0 C0 0.66 0 1.32 0 2 C-0.74765625 2.19078125 -1.4953125 2.3815625 -2.265625 2.578125 C-5.93598727 4.48671338 -7.08691495 7.14043425 -8.75 10.75 C-9.05292969 11.3584375 -9.35585937 11.966875 -9.66796875 12.59375 C-11.48442982 16.37198902 -12.51534483 19.84216881 -13 24 C-13.99 24 -14.98 24 -16 24 C-16.61492759 13.44374304 -16.61492759 13.44374304 -14.5625 8.625 C-10.63020256 4.59679287 -5.84689398 0 0 0 Z " fill="#EDE59E" transform="translate(25,15)"/>
<path d="M0 0 C0.556875 0.78375 1.11375 1.5675 1.6875 2.375 C5.31957254 6.13377275 10.17944642 5.98495425 15.13671875 6.4453125 C16.08160156 6.62835938 17.02648437 6.81140625 18 7 C18.99 8.485 18.99 8.485 20 10 C15.84373632 11.00926479 11.95634906 11.10239579 7.6875 11.0625 C6.43324219 11.05347656 5.17898437 11.04445313 3.88671875 11.03515625 C2.93410156 11.02355469 1.98148438 11.01195312 1 11 C-1.125 3.375 -1.125 3.375 0 0 Z " fill="#9E814C" transform="translate(14,48)"/>
<path d="M0 0 C1.65 0 3.3 0 5 0 C-0.55499449 7.71527013 -6.7736128 14.82655715 -13 22 C-13.99 21.01 -14.98 20.02 -16 19 C-15.236875 18.278125 -14.47375 17.55625 -13.6875 16.8125 C-11.00885792 14.23041254 -11.00885792 14.23041254 -9.625 11.625 C-7.65266702 8.43892365 -5.22733473 6.12347671 -2.5234375 3.55078125 C-0.90086307 2.05820739 -0.90086307 2.05820739 0 0 Z " fill="#987B49" transform="translate(32,23)"/>
<path d="M0 0 C0.625 1.75 0.625 1.75 1 4 C0.33333333 5.33333333 -0.33333333 6.66666667 -1 8 C-0.67619874 9.33568021 -0.34342449 10.66923011 0 12 C-0.99 13.485 -0.99 13.485 -2 15 C-3.32 15 -4.64 15 -6 15 C-7.17664871 11.47005387 -7.19850603 8.70544587 -7 5 C-4.78065836 1.67098753 -3.65316671 1.24976756 0 0 Z " fill="#DEB36A" transform="translate(55,15)"/>
<path d="M0 0 C0.33 0 0.66 0 1 0 C1.33 2.64 1.66 5.28 2 8 C2.33 8 2.66 8 3 8 C3.33 6.35 3.66 4.7 4 3 C4.33 3 4.66 3 5 3 C5.09796875 3.72445312 5.1959375 4.44890625 5.296875 5.1953125 C6.22376326 11.1881245 7.20473276 15.25591596 11 20 C11.66 20.99 12.32 21.98 13 23 C12.01 23 11.02 23 10 23 C8.3125 21 8.3125 21 7 19 C6.34 19.66 5.68 20.32 5 21 C1.5933112 15.28555427 -0.15126005 11.49576384 -0.0625 4.75 C-0.05347656 3.85796875 -0.04445313 2.9659375 -0.03515625 2.046875 C-0.02355469 1.37140625 -0.01195312 0.6959375 0 0 Z " fill="#CEAA63" transform="translate(8,30)"/>
<path d="M0 0 C5.56521739 2.88198758 5.56521739 2.88198758 6.875 6.25 C6.91625 6.8275 6.9575 7.405 7 8 C6.21625 7.21625 5.4325 6.4325 4.625 5.625 C0.6033633 2.21240925 -3.89727996 1.67565661 -9 1 C-9.33 1.99 -9.66 2.98 -10 4 C-10.99 4.33 -11.98 4.66 -13 5 C-14.63019692 6.86053348 -14.63019692 6.86053348 -16.125 9.0625 C-17.06273663 10.38979388 -18.01598672 11.70664123 -19 13 C-19.33 13 -19.66 13 -20 13 C-19.93070495 9.53524726 -19.80173399 6.9315778 -17.48046875 4.234375 C-11.71382344 -0.76743104 -7.43298802 -1.64614726 0 0 Z " fill="#D7BF83" transform="translate(36,21)"/>
<path d="M0 0 C2.56400777 2.56400777 2.32633634 3.68782015 2.375 7.25 C2.2761497 12.27818501 1.56552113 15.241748 -2 19 C-4.75 20.375 -4.75 20.375 -7 21 C-6.34 19.68 -5.68 18.36 -5 17 C-4.34 17 -3.68 17 -3 17 C-2.86722656 15.85660156 -2.73445313 14.71320312 -2.59765625 13.53515625 C-2.4194969 12.0442438 -2.24109918 10.55335982 -2.0625 9.0625 C-1.93198242 7.93038086 -1.93198242 7.93038086 -1.79882812 6.77539062 C-1.11328125 1.11328125 -1.11328125 1.11328125 0 0 Z " fill="#E6B359" transform="translate(43,28)"/>
<path d="M0 0 C1.32 0.33 2.64 0.66 4 1 C2.71034824 2.37562854 1.37310707 3.70766393 0 5 C-0.66 5 -1.32 5 -2 5 C-2.268125 5.556875 -2.53625 6.11375 -2.8125 6.6875 C-5.0476609 11.04018174 -6.83431258 14.27075652 -11 17 C-11.41443491 12.58978696 -10.4485562 10.65701759 -7.6875 7.25 C-6.76517578 6.08210938 -6.76517578 6.08210938 -5.82421875 4.890625 C-4 3 -4 3 -1 2 C-0.67 1.34 -0.34 0.68 0 0 Z " fill="#C19C5F" transform="translate(27,22)"/>
<path d="M0 0 C0 0.99 0 1.98 0 3 C-5.14285714 7 -5.14285714 7 -9 7 C-9 7.66 -9 8.32 -9 9 C-14.61 9 -20.22 9 -26 9 C-25.67 8.34 -25.34 7.68 -25 7 C-22.33984375 6.69140625 -22.33984375 6.69140625 -18.9375 6.5625 C-11.67461092 6.10856943 -5.65060369 4.94427823 0 0 Z " fill="#E6DDB2" transform="translate(52,6)"/>
<path d="M0 0 C2.62890625 -0.27734375 2.62890625 -0.27734375 5.5625 0.0625 C6.53316406 0.15660156 7.50382812 0.25070313 8.50390625 0.34765625 C11 1 11 1 13 4 C7.72 4 2.44 4 -3 4 C-2.01 2.68 -1.02 1.36 0 0 Z " fill="#CAA159" transform="translate(21,54)"/>
<path d="M0 0 C1.22487152 2.44974304 0.98796191 3.6753273 0.6875 6.375 C0.56955078 7.53128906 0.56955078 7.53128906 0.44921875 8.7109375 C-0.43825987 13.23321986 -2.5586544 15.9888226 -6 19 C-6.66 19 -7.32 19 -8 19 C-6.94773274 16.81452185 -5.87469237 14.81725971 -4.5 12.8125 C-2.75523878 9.54107272 -2.11310283 6.51152725 -1.4296875 2.890625 C-1 1 -1 1 0 0 Z " fill="#C39955" transform="translate(42,30)"/>
<path d="M0 0 C0.99 0 1.98 0 3 0 C2.814375 0.5775 2.62875 1.155 2.4375 1.75 C1.82065265 3.98697707 1.82065265 3.98697707 2.625 6.0625 C2.74875 6.701875 2.8725 7.34125 3 8 C1.5625 9.75 1.5625 9.75 0 11 C-2.30163882 7.54754176 -2.34490322 6.05261287 -2 2 C-1.34 1.34 -0.68 0.68 0 0 Z " fill="#FADB80" transform="translate(52,19)"/>
<path d="M0 0 C0.33 0 0.66 0 1 0 C1.05391993 1.79133978 1.09275571 3.58313899 1.125 5.375 C1.14820313 6.37273438 1.17140625 7.37046875 1.1953125 8.3984375 C1 11 1 11 -1 13 C-3.125 12.625 -3.125 12.625 -5 12 C-4.72285156 11.46890625 -4.44570313 10.9378125 -4.16015625 10.390625 C-3.79792969 9.68421875 -3.43570313 8.9778125 -3.0625 8.25 C-2.52302734 7.20585938 -2.52302734 7.20585938 -1.97265625 6.140625 C-1.04441818 4.09775567 -0.46833422 2.18884624 0 0 Z " fill="#E1C761" transform="translate(48,35)"/>
<path d="M0 0 C0.33 0 0.66 0 1 0 C1.14285714 7.42857143 1.14285714 7.42857143 0 11 C-1.32 10.67 -2.64 10.34 -4 10 C-3.52219697 8.70782829 -3.04270894 7.41627954 -2.5625 6.125 C-2.29566406 5.40570312 -2.02882812 4.68640625 -1.75390625 3.9453125 C-1 2 -1 2 0 0 Z " fill="#9F8552" transform="translate(53,6)"/>
<path d="M0 0 C0 0.66 0 1.32 0 2 C-0.61359375 2.24492187 -1.2271875 2.48984375 -1.859375 2.7421875 C-4.42635567 4.25052285 -5.03857904 5.44256788 -6.25 8.125 C-6.58515625 8.84945313 -6.9203125 9.57390625 -7.265625 10.3203125 C-7.50796875 10.87460937 -7.7503125 11.42890625 -8 12 C-8.33 12 -8.66 12 -9 12 C-8.76083941 5.90140505 -8.76083941 5.90140505 -6.66796875 3.421875 C-2.62661638 0 -2.62661638 0 0 0 Z " fill="#EDDA91" transform="translate(25,22)"/>
<path d="M0 0 C0.66 0.33 1.32 0.66 2 1 C-3.14285714 6.57142857 -3.14285714 6.57142857 -7 7 C-5.55609075 3.19333016 -3.65047197 1.73397418 0 0 Z " fill="#372511" transform="translate(23,19)"/>
<path d="M0 0 C0.66 0 1.32 0 2 0 C2.33 2.64 2.66 5.28 3 8 C3.99 8.33 4.98 8.66 6 9 C4.68 9.33 3.36 9.66 2 10 C1.46987262 8.71211992 0.9511671 7.41953322 0.4375 6.125 C0.14746094 5.40570312 -0.14257812 4.68640625 -0.44140625 3.9453125 C-1 2 -1 2 0 0 Z " fill="#C39B53" transform="translate(46,22)"/>
<path d="M0 0 C0.66 1.32 1.32 2.64 2 4 C0.35 5.32 -1.3 6.64 -3 8 C-3.66 7.67 -4.32 7.34 -5 7 C-4.34 6.01 -3.68 5.02 -3 4 C-2.34 4 -1.68 4 -1 4 C-0.67 2.68 -0.34 1.36 0 0 Z " fill="#D6A753" transform="translate(41,41)"/>
<path d="M0 0 C4.29 0 8.58 0 13 0 C13.33 0.99 13.66 1.98 14 3 C13.0409375 2.7834375 13.0409375 2.7834375 12.0625 2.5625 C8.06155212 1.82763202 4.04495104 1.41418889 0 1 C0 0.67 0 0.34 0 0 Z " fill="#E3B864" transform="translate(23,54)"/>
<path d="M0 0 C1.485 0.99 1.485 0.99 3 2 C2.67 3.98 2.34 5.96 2 8 C1.01 8 0.02 8 -1 8 C-1.125 2.25 -1.125 2.25 0 0 Z " fill="#F8CE7B" transform="translate(10,31)"/>
<path d="M0 0 C0.33 1.32 0.66 2.64 1 4 C-0.98 4.66 -2.96 5.32 -5 6 C-5 4.68 -5 3.36 -5 2 C-3.35 1.34 -1.7 0.68 0 0 Z " fill="#E0C583" transform="translate(55,15)"/>
<path d="M0 0 C2.2870771 0.26970249 4.53591335 0.60689229 6.796875 1.04296875 C6.796875 1.37296875 6.796875 1.70296875 6.796875 2.04296875 C5.559375 2.18734375 4.321875 2.33171875 3.046875 2.48046875 C0.23183001 2.82985377 -2.4732747 3.24676241 -5.203125 4.04296875 C-3.94603213 1.27736445 -3.13780685 0.06119836 0 0 Z " fill="#BD9A5E" transform="translate(23.203125,53.95703125)"/>
<path d="M0 0 C2 2 2 2 2 6 C1.34 6 0.68 6 0 6 C0 7.65 0 9.3 0 11 C-0.33 11 -0.66 11 -1 11 C-1.02688151 9.35425434 -1.04634123 7.70838587 -1.0625 6.0625 C-1.07410156 5.14597656 -1.08570313 4.22945312 -1.09765625 3.28515625 C-1 1 -1 1 0 0 Z " fill="#D4A758" transform="translate(43,28)"/>
<path d="M0 0 C0.33 0.99 0.66 1.98 1 3 C-0.4375 5.1875 -0.4375 5.1875 -2 7 C-2.99 6.67 -3.98 6.34 -5 6 C-3.35 4.02 -1.7 2.04 0 0 Z " fill="#FCF88A" transform="translate(18,19)"/>
<path d="M0 0 C0.33 0.66 0.66 1.32 1 2 C-0.98 4.97 -0.98 4.97 -3 8 C-4 5 -4 5 -3.1875 2.875 C-2 1 -2 1 0 0 Z " fill="#2B1808" transform="translate(17,25)"/>
<path d="M0 0 C0 0.99 0 1.98 0 3 C-1.98 3.99 -3.96 4.98 -6 6 C-5.8125 4.125 -5.8125 4.125 -5 2 C-2.4375 0.75 -2.4375 0.75 0 0 Z " fill="#F5E07B" transform="translate(25,16)"/>
</svg>
