<?xml version="1.0" encoding="UTF-8"?>
<svg version="1.1" xmlns="http://www.w3.org/2000/svg" width="128" height="128">
  <path d="M0 0 C1.1161972 -0.01007584 1.1161972 -0.01007584 2.25494385 -0.02035522 C4.69639915 -0.03923343 7.13757797 -0.04325445 9.57910156 -0.04541016 C11.29152536 -0.05184599 13.00394808 -0.05857492 14.71636963 -0.06558228 C18.30052232 -0.07753023 21.88457881 -0.08126575 25.46875 -0.08007812 C30.03580913 -0.07987527 34.60224368 -0.10715366 39.16915512 -0.14162254 C42.70561491 -0.16398755 46.24192678 -0.16791271 49.77845001 -0.16685867 C51.46077879 -0.16920112 53.14311249 -0.17794718 54.82537079 -0.19352341 C65.73754465 -0.28509034 75.15527532 0.28570105 84.53222656 6.47802734 C91.81386578 14.09834745 95.52382037 21.51791606 95.51025391 32.15673828 C95.51697113 32.92183716 95.52368835 33.68693604 95.53060913 34.47521973 C95.54952688 36.99184763 95.55351043 39.50820786 95.55566406 42.02490234 C95.56209731 43.78599148 95.56882606 45.54707957 95.57583618 47.3081665 C95.58779412 50.9966479 95.59151864 54.68503575 95.59033203 58.37353516 C95.59012916 63.07859736 95.61740519 67.78305343 95.65187645 72.48797226 C95.67421824 76.12561751 95.67816732 79.76311869 95.67711258 83.4008255 C95.67945859 85.13421971 95.68822524 86.86761849 95.70377731 88.60094452 C95.79219757 99.47536483 95.27150544 108.27074158 89.03222656 117.54052734 C81.24059215 125.15901433 73.42398919 128.59554871 62.43945312 128.58105469 C61.69532166 128.58777191 60.95119019 128.59448914 60.18450928 128.60140991 C57.74305398 128.62028812 55.30187515 128.62430914 52.86035156 128.62646484 C51.14792777 128.63290068 49.43550505 128.63962961 47.7230835 128.64663696 C44.13893081 128.65858492 40.55487431 128.66232043 36.97070312 128.66113281 C32.40364399 128.66092996 27.83720944 128.68820834 23.270298 128.72267723 C19.73383821 128.74504224 16.19752635 128.7489674 12.66100311 128.74791336 C10.97867434 128.75025581 9.29634063 128.75900187 7.61408234 128.77457809 C-3.29809153 128.86614503 -12.71582219 128.29535364 -22.09277344 122.10302734 C-29.37441265 114.48270724 -33.08436725 107.06313863 -33.07080078 96.42431641 C-33.07751801 95.65921753 -33.08423523 94.89411865 -33.09115601 94.10583496 C-33.11007375 91.58920706 -33.11405731 89.07284683 -33.11621094 86.55615234 C-33.12264418 84.7950632 -33.12937293 83.03397512 -33.13638306 81.27288818 C-33.14834099 77.58440679 -33.15206551 73.89601893 -33.15087891 70.20751953 C-33.15067603 65.50245733 -33.17795206 60.79800126 -33.21242332 56.09308243 C-33.23476512 52.45543718 -33.23871419 48.81793599 -33.23765945 45.18022919 C-33.24000547 43.44683498 -33.24877211 41.71343619 -33.26432419 39.98011017 C-33.35989155 28.22669872 -32.92711042 17.84391873 -24.47949219 8.82177734 C-17.32701439 2.37632609 -9.59633614 -0.0126623 0 0 Z " fill="#000000" transform="translate(32.7802734375,-0.29052734375)"/>
  <path d="M0 0 C1.1161972 -0.01007584 1.1161972 -0.01007584 2.25494385 -0.02035522 C4.69639915 -0.03923343 7.13757797 -0.04325445 9.57910156 -0.04541016 C11.29152536 -0.05184599 13.00394808 -0.05857492 14.71636963 -0.06558228 C18.30052232 -0.07753023 21.88457881 -0.08126575 25.46875 -0.08007812 C30.03580913 -0.07987527 34.60224368 -0.10715366 39.16915512 -0.14162254 C42.70561491 -0.16398755 46.24192678 -0.16791271 49.77845001 -0.16685867 C51.46077879 -0.16920112 53.14311249 -0.17794718 54.82537079 -0.19352341 C65.73754465 -0.28509034 75.15527532 0.28570105 84.53222656 6.47802734 C91.75668448 14.03850656 95.49975821 21.286571 95.41503906 31.87646484 C95.41220917 32.5782486 95.40937927 33.28003235 95.40646362 34.00308228 C95.39535168 36.22407763 95.3702649 38.4446558 95.34472656 40.66552734 C95.3346851 42.1798444 95.3255613 43.69416783 95.31738281 45.20849609 C95.29544211 48.90263993 95.26097532 52.59654285 95.21972656 56.29052734 C94.76227051 55.89220703 94.30481445 55.49388672 93.83349609 55.08349609 C72.97139442 37.03703718 47.3023825 31.5720983 20.21972656 33.29052734 C6.36858098 34.6105839 -6.21254608 37.73663041 -18.59277344 44.16552734 C-19.2034668 44.48094482 -19.81416016 44.7963623 -20.44335938 45.12133789 C-25.06785089 47.63183009 -28.90134364 50.74860596 -32.78027344 54.29052734 C-32.88029152 50.20132655 -32.95227359 46.11261424 -33 42.02246094 C-33.01992686 40.63561578 -33.04707903 39.24885253 -33.08203125 37.86230469 C-33.35519412 26.73493477 -32.37446995 17.25369314 -24.47949219 8.82177734 C-17.32701439 2.37632609 -9.59633614 -0.0126623 0 0 Z " fill="#FFDD66" transform="translate(32.7802734375,-0.29052734375)"/>
  <path d="M0 0 C16.5 0 33 0 50 0 C50 20.05714286 50 20.05714286 43.8125 29.25 C36.17693096 36.71588973 28.57161405 40.28816836 17.75390625 40.1953125 C17.09792953 40.1924826 16.44195282 40.18965271 15.76609802 40.18673706 C13.69803591 40.17565984 11.63042827 40.15058063 9.5625 40.125 C8.14909485 40.11495402 6.73568283 40.10583102 5.32226562 40.09765625 C1.88136606 40.07576184 -1.55927252 40.04132051 -5 40 C-4.45362272 34.62431581 -3.90216475 29.24918668 -3.34594727 23.87451172 C-3.15736645 22.04522907 -2.97018612 20.21580149 -2.78442383 18.38623047 C-2.51749991 15.75969909 -2.24557878 13.13372647 -1.97265625 10.5078125 C-1.89032242 9.68693146 -1.80798859 8.86605042 -1.72315979 8.02029419 C-1.11387171 2.22774341 -1.11387171 2.22774341 0 0 Z " fill="#00A2E8" transform="translate(78,88)"/>
  <path d="M0 0 C15.84 0 31.68 0 48 0 C49.49826015 2.9965203 49.5966791 6.20048466 49.97265625 9.4921875 C50.06002548 10.23453644 50.14739471 10.97688538 50.2374115 11.74172974 C50.42155084 13.31344961 50.6038389 14.8853873 50.78442383 16.45751953 C51.06065507 18.85896097 51.34332906 21.25957796 51.62695312 23.66015625 C51.80507223 25.18745518 51.98281881 26.71479761 52.16015625 28.2421875 C52.24451431 28.95897675 52.32887238 29.67576599 52.41578674 30.41427612 C52.78431057 33.6458797 53 36.74051176 53 40 C48.56272822 40.11756758 44.12586472 40.18770716 39.6875 40.25 C37.82254883 40.30027344 37.82254883 40.30027344 35.91992188 40.3515625 C26.39890371 40.4515207 18.71080538 39.11090922 10.6875 33.8125 C0.5657037 23.21992248 0 15.41529039 0 0 Z " fill="#00A2E8" transform="translate(0,88)"/>
  <path d="M0 0 C3.46257582 1.17727578 3.82325623 1.57093099 5.5 4.625 C7.86656408 10.13712216 7.65394738 14.63815783 6.375 20.5 C5.125 23.0625 5.125 23.0625 3 23.9375 C2.38125 23.97875 1.7625 24.02 1.125 24.0625 C1.125 24.7225 1.125 24.3825 1.125 24.0625 C-0.195 24.0625 -1.515 25.0625 -2.875 21 -1.875 25.4025 -2.875 1.7425 -0.875 24.0625 C-4.865 23.7325 -5.855 23.4025 -5.875 23.0625 C-9.82309811 18.58575843 -9.78772579 14.33275536 -8.875 9.0625 C-5.57430495 0.12118054 -4.57430495 0.12118054 0 0 Z " fill="#FFF200" transform="translate(88.875,52.9375)"/>
    <path d="M0 0 C3.46257582 1.17727578 3.82325623 1.57093099 5.5 4.625 C7.86656408 10.13712216 7.65394738 14.63815783 6.375 20.5 C5.125 23.0625 5.125 23.0625 3 23.9375 C2.38125 23.97875 1.7625 24.02 1.125 24.0625 C1.125 24.7225 1.125 24.3825 1.125 24.0625 C-0.195 24.0625 -1.515 25.0625 -2.875 21 -1.875 25.4025 -2.875 1.7425 -0.875 24.0625 C-4.865 23.7325 -5.855 23.4025 -5.875 23.0625 C-9.82309811 18.58575843 -9.78772579 14.33275536 -8.875 9.0625 C-5.57430495 0.12118054 -4.57430495 0.12118054 0 0 Z " fill="#FFF200" transform="translate(38.875,52.9375)"/>

</svg>
